<?xml version="1.0" encoding="UTF-8" standalone="no"?>
<!-- Created with Inkscape (http://www.inkscape.org/) -->

<svg
   xmlns:dc="http://purl.org/dc/elements/1.1/"
   xmlns:cc="http://creativecommons.org/ns#"
   xmlns:rdf="http://www.w3.org/1999/02/22-rdf-syntax-ns#"
   xmlns:svg="http://www.w3.org/2000/svg"
   xmlns="http://www.w3.org/2000/svg"
   xmlns:xlink="http://www.w3.org/1999/xlink"
   xmlns:sodipodi="http://sodipodi.sourceforge.net/DTD/sodipodi-0.dtd"
   xmlns:inkscape="http://www.inkscape.org/namespaces/inkscape"
   width="744.09448819"
   height="1052.3622047"
   id="svg3063"
   version="1.1"
   inkscape:version="0.48.3.1 r9886"
   sodipodi:docname="cloudgnu.svg">
  <defs
     id="defs3065" />
  <sodipodi:namedview
     id="base"
     pagecolor="#ffffff"
     bordercolor="#666666"
     borderopacity="1.0"
     inkscape:pageopacity="0.0"
     inkscape:pageshadow="2"
     inkscape:zoom="0.35"
     inkscape:cx="37.857143"
     inkscape:cy="520"
     inkscape:document-units="px"
     inkscape:current-layer="layer1"
     showgrid="false"
     inkscape:window-width="1067"
     inkscape:window-height="664"
     inkscape:window-x="149"
     inkscape:window-y="24"
     inkscape:window-maximized="0" />
  <metadata
     id="metadata3068">
    <rdf:RDF>
      <cc:Work
         rdf:about="">
        <dc:format>image/svg+xml</dc:format>
        <dc:type
           rdf:resource="http://purl.org/dc/dcmitype/StillImage" />
        <dc:title></dc:title>
      </cc:Work>
    </rdf:RDF>
  </metadata>
  <g
     inkscape:label="Layer 1"
     inkscape:groupmode="layer"
     id="layer1"
     style="opacity:1">
    <path
       style="fill:#000000"
       d="m 301.4327,841.01362 c -14.74461,-1.50676 -29.82021,-4.61253 -28.95111,-5.96432 0.33384,-0.51927 0.12605,-0.61438 -0.5129,-0.23477 -0.98807,0.58702 -20.24177,-5.05029 -21.24644,-6.22076 -0.24253,-0.28256 -1.03627,-0.61847 -1.76384,-0.74649 -6.45396,-1.1355 -23.02711,-11.59462 -22.23233,-14.03056 0.12541,-0.38436 -0.12966,-0.48634 -0.56685,-0.22661 -0.8229,0.48889 -11.19022,-9.54045 -15.25576,-14.75844 -2.89257,-3.71251 -9.23166,-15.29347 -13.13835,-24.00261 -2.52855,-5.63686 -2.77948,-6.75343 -1.68502,-7.49803 1.07564,-0.7318 1.04811,-0.80221 -0.1683,-0.4305 -2.05656,0.62843 -3.47718,-5.29386 -3.91332,-16.31403 -0.19207,-4.85291 -0.51368,-8.98157 -0.7147,-9.17482 -0.20103,-0.19324 -1.89124,0.57203 -3.75602,1.7006 -5.25505,3.18037 -11.33105,5.53532 -15.94269,6.17911 -2.31238,0.32282 -4.99806,0.74756 -5.96817,0.94387 -0.97011,0.19631 -3.99099,0.51326 -6.71307,0.70433 -2.72208,0.19107 -7.00358,0.54092 -9.51446,0.77746 -2.51088,0.23654 -4.3896,0.1567 -4.17493,-0.1774 0.21465,-0.33411 -1.43468,-0.71007 -3.66521,-0.83548 -4.85462,-0.27294 -17.607,-3.944 -19.27698,-5.54931 -0.33242,-0.31956 -1.18407,-0.58101 -1.89256,-0.58101 -2.00678,0 -12.65899,-5.27461 -13.15339,-6.51311 -0.24308,-0.60894 -0.72278,-0.94033 -1.066,-0.73642 -0.96185,0.57145 -5.41948,-3.42752 -4.68748,-4.20517 0.35518,-0.37732 0.15142,-0.41263 -0.45279,-0.0785 -1.22948,0.67997 -9.82309,-4.38439 -13.77825,-8.11974 -1.39146,-1.31411 -3.07814,-2.38931 -3.74817,-2.38931 -0.67003,0 -1.21823,-0.39095 -1.21823,-0.86877 0,-0.47784 -1.79596,-2.46646 -3.99103,-4.41918 -2.19507,-1.95272 -3.79681,-4.03694 -3.55942,-4.63161 0.23738,-0.59467 0.14824,-0.99042 -0.1981,-0.87944 -0.80592,0.25824 -4.59834,-3.36264 -4.59834,-4.39036 0,-0.42742 -0.32169,-0.9043 -0.71487,-1.05973 -0.39317,-0.15542 -2.17345,-2.57159 -3.95616,-5.36926 -4.08036,-6.40341 -10.12114,-23.46035 -11.23245,-31.71626 -0.91274,-6.78072 -1.16839,-28.30073 -0.39367,-33.13879 1.2842,-8.0199 4.23759,-20.00774 5.80636,-23.56816 3.64572,-8.27418 8.1894,-16.17291 9.0196,-15.67968 0.48063,0.28555 0.5812,0.0755 0.22739,-0.47476 -0.86882,-1.35135 6.11192,-13.28378 10.3679,-17.72222 1.90869,-1.99051 6.7737,-5.42535 10.81113,-7.63296 7.31499,-3.99973 7.33472,-4.0198 5.6139,-5.71056 -5.19216,-5.10145 -7.32499,-8.97598 -5.48543,-9.96492 0.36379,-0.19557 0.17962,-0.2446 -0.40928,-0.10895 -1.42526,0.32832 -4.82259,-4.34639 -4.97873,-6.8507 -0.0682,-1.0939 -0.39307,-1.82923 -0.72194,-1.63407 -1.48236,0.8797 -4.24936,-13.67167 -4.17283,-21.94445 0.0656,-7.09174 2.67462,-18.5907 4.33974,-19.12693 0.48564,-0.1564 0.65314,-0.64185 0.37224,-1.07877 -0.7105,-1.1051 2.08268,-8.88216 3.63481,-10.12044 0.701,-0.55927 1.27455,-1.71132 1.27455,-2.56013 0,-1.72288 3.34847,-7.57466 4.33431,-7.57466 0.34783,0 1.47022,-1.43296 2.4942,-3.18436 1.02399,-1.75139 2.84168,-4.00338 4.03933,-5.0044 1.19764,-1.00103 2.51646,-2.3444 2.9307,-2.98526 0.41423,-0.64086 3.33277,-3.253 6.48564,-5.80476 3.15286,-2.55177 5.93091,-4.84501 6.17344,-5.09611 1.31171,-1.35804 11.62838,-7.53088 15.39491,-9.21133 3.61024,-1.61072 5.99027,-1.97061 13.67613,-2.06791 8.24962,-0.10446 9.61018,0.0909 11.99333,1.72217 1.84435,1.26246 3.08804,1.59676 3.96229,1.06506 0.76567,-0.46567 0.86152,-0.78013 0.24017,-0.78793 -0.56869,-0.007 -1.51336,-1.4436 -2.09925,-3.19214 -0.58589,-1.74855 -1.40095,-3.58883 -1.81125,-4.08951 -0.42766,-0.52186 -0.28451,-1.38896 0.33541,-2.03188 0.85616,-0.88791 0.85049,-0.99614 -0.0272,-0.51954 -1.17725,0.63926 -1.60647,-0.0886 -2.45793,-4.16825 -0.59412,-2.8466 -0.92286,-4.38492 -2.0068,-9.39089 -0.41164,-1.90105 -1.07403,-3.96288 -1.47197,-4.58183 -0.52353,-0.8143 -0.38114,-0.93172 0.51513,-0.42477 0.83523,0.47241 0.76796,0.16992 -0.20654,-0.92874 -1.30733,-1.47389 -1.81437,-2.9573 -2.90175,-8.48934 -0.72836,-3.70557 -0.82424,-8.48709 -0.18996,-9.47365 0.43907,-0.68294 0.21834,-0.86351 -0.65968,-0.53963 -0.93507,0.34493 -1.32903,-0.0902 -1.35207,-1.49333 -0.0776,-4.72679 -0.19899,-5.35029 -1.15167,-5.91629 -0.72764,-0.4323 -0.65561,-1.01151 0.26073,-2.09636 0.79128,-0.9368 0.85271,-1.26024 0.16377,-0.86236 -0.81071,0.46818 -1.10244,-0.28721 -1.10244,-2.85452 0,-2.56731 0.29173,-3.3227 1.1024,-2.85452 0.67884,0.39205 0.61212,0.0563 -0.17363,-0.87376 -0.7018,-0.83074 -1.39086,-3.0976 -1.53121,-5.03747 -0.14036,-1.93987 -0.69848,-6.00679 -1.24029,-9.0376 -0.54179,-3.03081 -1.12354,-7.89358 -1.29271,-10.80616 -0.1692,-2.91257 -0.66324,-6.53683 -1.09789,-8.05389 -0.43466,-1.51707 -0.75135,-3.96182 -0.70376,-5.4328 0.0476,-1.47098 -0.18256,-2.51457 -0.51142,-2.31909 -1.04222,0.6195 -2.19883,-4.69908 -2.97005,-13.65754 -0.28098,-3.26394 -0.8613,-7.46045 -1.28958,-9.32556 -0.42831,-1.86511 -0.6503,-5.58474 -0.49333,-8.26584 0.30995,-5.29423 -0.46366,-6.23439 -2.06738,-2.51252 -0.55983,1.29922 -2.55228,3.97586 -4.42769,5.9481 -1.8754,1.97223 -3.65027,4.18821 -3.94414,4.92439 -0.29388,0.73618 -1.32606,1.53754 -2.29373,1.78079 -0.96766,0.24325 -1.75939,0.8326 -1.75939,1.30967 0,0.98266 -0.006,0.98802 -9.00626,7.63553 -3.63804,2.68712 -10.34269,6.64164 -14.89923,8.78783 -4.55654,2.1462 -8.87991,4.38198 -9.6075,4.9684 -0.72758,0.58643 -3.90249,1.54182 -7.05536,2.1231 -7.26696,1.33977 -11.88716,0.2603 -16.40099,-3.83199 -3.17838,-2.88155 -3.23313,-3.03798 -2.58845,-7.39508 0.36223,-2.4482 0.72359,-5.85076 0.80302,-7.56128 0.0795,-1.71051 0.7702,-3.80876 1.53505,-4.66278 0.76484,-0.85402 1.63652,-2.21941 1.93708,-3.03421 1.19422,-3.23747 6.86302,-10.8377 12.08943,-16.20845 4.3657,-4.48628 5.89991,-5.5606 7.37577,-5.16485 1.22228,0.32774 1.47895,0.24147 0.74594,-0.25072 -1.11041,-0.7456 0.33474,-1.96847 17.43309,-14.75186 3.15287,-2.3572 8.03502,-5.84089 10.84924,-7.74154 3.42426,-2.31265 4.73698,-3.64874 3.96864,-4.03929 -0.63146,-0.32097 -5.71205,-1.04023 -11.2902,-1.59837 -5.57815,-0.55812 -11.72954,-1.43801 -13.66977,-1.95529 -1.94023,-0.51727 -4.51922,-1.08986 -5.73109,-1.27241 -1.21188,-0.18254 -4.73586,-1.49374 -7.83109,-2.91376 -4.3397,-1.99097 -7.97842,-4.83975 -15.8991,-12.44753 -5.64929,-5.42612 -11.15818,-10.92236 -12.24199,-12.21387 -2.36843,-2.82232 -7.24333,-12.53232 -7.24333,-14.4275 0,-0.74331 -0.39687,-1.58725 -0.88192,-1.87543 -0.48506,-0.28818 -0.88192,-1.33273 -0.88192,-2.32124 0,-0.9885 -0.49609,-3.12648 -1.10241,-4.75107 -0.895604,-2.39969 -0.886838,-3.02341 0.0468,-3.32497 0.88448,-0.28571 0.83247,-0.59554 -0.22585,-1.3453 -1.096171,-0.77658 -1.470705,-3.50629 -1.847012,-13.4616 -0.424821,-11.23878 -0.243727,-13.52772 1.811012,-22.89002 2.42592,-11.05368 4.3576,-17.29403 5.90983,-19.09194 0.5228,-0.60556 0.72192,-1.32078 0.44249,-1.58939 -0.27942,-0.26861 0.62982,-2.51015 2.02055,-4.9812 1.39073,-2.47105 2.34175,-4.67243 2.11338,-4.89196 -1.31634,-1.26538 13.47737,-22.94694 15.2188,-22.30457 0.61313,0.22617 0.9128,-0.0596 0.67835,-0.6469 -0.49754,-1.24638 4.2869,-4.85562 6.66494,-5.02781 0.91298,-0.0661 1.48893,-0.38621 1.27991,-0.71133 -0.20903,-0.32512 1.30671,-1.52876 3.3683,-2.67475 6.22275,-3.45909 21.58568,-7.7429 30.34614,-8.46175 3.85987,-0.31673 4.48498,-0.16837 4.12253,0.97841 -0.34545,1.093 -0.24121,1.0745 0.5446,-0.0967 1.02438,-1.52671 3.97358,-1.13539 2.98866,0.39655 -0.32665,0.50808 -0.15066,0.63952 0.41015,0.30634 0.54027,-0.32098 1.8914,-0.0938 3.00251,0.50484 1.11111,0.59865 2.16277,1.16191 2.33702,1.2517 0.58205,0.29994 -2.05954,5.34731 -2.79855,5.34731 -0.40055,0 -4.52849,3.80321 -9.17319,8.45158 -4.64471,4.64837 -8.84537,8.21368 -9.3348,7.9229 -0.48943,-0.29077 -0.63635,-0.13435 -0.32649,0.3476 0.30986,0.48196 -0.81557,2.54378 -2.50094,4.58183 -1.80826,2.18666 -3.06783,4.66118 -3.07287,6.03694 -0.004,1.28226 -0.36547,2.33139 -0.80169,2.33139 -0.43621,0 -0.98252,1.62137 -1.21402,3.60306 -0.2315,1.98168 -1.08497,5.70131 -1.8966,8.26584 -1.63113,5.15389 -1.84602,16.01085 -0.50118,25.32106 1.09123,7.55442 1.95114,10.57161 8.12631,28.51287 2.55462,7.42215 7.75049,15.72099 13.01316,20.7846 6.54481,6.29727 24.70931,14.24513 30.00248,13.12756 1.66868,-0.35232 2.65054,-0.22062 2.65054,0.35552 0,1.45068 2.59223,1.06724 5.2958,-0.78334 1.44161,-0.98678 3.1616,-1.48613 4.10478,-1.1917 1.25454,0.39163 1.34262,0.31477 0.38762,-0.3383 -0.96599,-0.66059 -0.38836,-1.27014 2.64576,-2.79187 7.31938,-3.67097 10.06555,-4.8676 16.66943,-7.26368 l 6.61441,-2.39988 25.31425,0.24221 25.31426,0.24222 1.44274,-2.11666 c 0.79351,-1.16416 2.10175,-2.31762 2.90721,-2.56325 1.25049,-0.38134 1.4516,-1.75389 1.37637,-9.39412 -0.0943,-9.57784 0.65288,-14.03067 3.28327,-19.56662 0.91046,-1.91618 1.65539,-3.91602 1.65539,-4.44408 0,-0.52806 2.67883,-2.65498 5.95297,-4.72649 7.93945,-5.02323 20.27135,-8.30432 31.01317,-8.25152 4.42237,0.0217 9.40468,-0.50481 11.98046,-1.26612 2.91336,-0.8611 9.64649,-1.45123 19.84322,-1.7392 8.66722,-0.24477 17.5384,-0.95111 20.23446,-1.61112 3.46625,-0.84854 4.96887,-0.91392 5.40524,-0.23518 0.41286,0.64214 0.70811,0.65602 0.93165,0.0437 0.19949,-0.54642 1.78328,-0.70667 4.05718,-0.41054 2.05148,0.26716 3.52,0.81233 3.26336,1.21148 -0.25662,0.39916 0.80544,0.48118 2.36014,0.18227 2.28424,-0.43915 2.68329,-0.31467 2.07935,0.64861 -0.63087,1.00623 -0.5204,1.01518 0.70866,0.0574 1.34562,-1.04864 3.75944,-0.94659 8.67031,0.36652 0.77524,0.20729 1.91499,1.41868 2.53277,2.69199 1.04742,2.15882 1.16709,2.20064 1.77293,0.61954 1.14113,-2.97819 0.12787,-24.57376 -1.47179,-31.36781 -0.32935,-1.39883 -0.64929,-2.92484 -0.71096,-3.39111 -0.27866,-2.10672 -3.14144,-6.96592 -5.19213,-8.81297 -1.24005,-1.1169 -2.0707,-2.3168 -1.8459,-2.66644 0.22478,-0.34964 -0.20947,-0.86374 -0.96501,-1.14245 -0.75554,-0.2787 -1.1102,-0.91661 -0.78812,-1.41756 0.32506,-0.50561 -0.23862,-1.11802 -1.26697,-1.37654 -1.98663,-0.4994 -2.5813,-2.77335 -0.75018,-2.86866 0.60632,-0.0315 0.30867,-0.43041 -0.66144,-0.88633 -0.97013,-0.45592 -2.55048,-2.53519 -3.5119,-4.62059 -0.96144,-2.08541 -2.16984,-3.63606 -2.68537,-3.44589 -1.22238,0.45091 -4.11102,-4.35546 -3.01057,-5.00924 0.45626,-0.27108 0.82959,-1.62683 0.82959,-3.01278 0,-1.56306 0.55439,-2.72442 1.46004,-3.05849 2.43268,-0.89738 7.6796,-0.60357 8.04511,0.45049 0.18863,0.544 0.68685,0.98908 1.10717,0.98908 1.09215,0 8.2751,4.69943 14.96338,9.78977 7.15236,5.44356 12.59859,11.17509 11.79963,12.41779 -0.35848,0.55757 -0.20825,0.70742 0.36674,0.36581 0.53941,-0.32047 1.44454,0.283 2.02875,1.35263 0.58014,1.06218 3.77651,5.42648 7.10306,9.69844 3.32654,4.27196 6.13326,8.75458 6.23715,9.96139 0.1039,1.20681 0.50905,2.1942 0.90031,2.1942 0.70329,0 2.2127,3.18827 2.76394,5.83808 0.15651,0.75243 0.48659,1.94029 0.73349,2.63971 2.84175,8.04998 4.10329,16.10779 2.52186,16.10779 -0.51807,0 -0.94194,0.29829 -0.94194,0.66287 0,1.27019 4.62506,1.01595 11.32924,-0.62277 3.71258,-0.90747 8.13915,-1.90949 9.83686,-2.22672 4.24273,-0.79281 40.5981,-0.44863 52.47429,0.49676 5.33561,0.42474 11.88388,0.94432 14.55169,1.15463 7.42333,0.58521 23.00023,3.92522 26.45762,5.67308 5.21862,2.63821 7.98304,4.70582 7.28296,5.44717 -0.3677,0.38937 -0.27168,0.4934 0.21337,0.23119 0.48505,-0.26221 2.46937,0.43704 4.4096,1.55388 1.94024,1.11684 4.12297,2.2863 4.85057,2.59878 0.72759,0.31248 4.63958,3.25236 8.69335,6.53304 6.28779,5.0887 7.12987,6.06716 5.73249,6.66112 -1.35977,0.57798 -1.2981,0.63406 0.36302,0.33013 1.55312,-0.28418 2.90983,0.6458 6.06137,4.15489 2.36757,2.63619 4.55586,4.33824 5.24891,4.08258 0.65369,-0.24113 2.2459,0.36108 3.53821,1.33826 1.2923,0.97719 2.84433,1.7767 3.44894,1.7767 1.80434,0 5.47896,5.32652 7.96644,11.54776 1.28245,3.20743 3.03943,7.54846 3.9044,9.64671 1.78354,4.32655 4.15133,14.46231 4.85215,20.77058 0.25901,2.33139 1.06684,8.62614 1.79518,13.98834 0.72835,5.3622 1.50705,11.17359 1.73044,12.9142 1.2739,9.92552 7.26687,26.4762 12.10947,33.44248 1.35493,1.94912 2.46352,3.76125 2.46352,4.02695 0,0.26569 0.8082,1.25999 1.796,2.20956 0.98782,0.94957 1.55361,2.10351 1.25733,2.56434 -0.29627,0.46083 -0.16942,0.73303 0.28191,0.60492 0.45132,-0.12813 2.41886,1.70241 4.3723,4.06786 3.27306,3.96337 12.54099,12.23087 13.71092,12.23087 1.17721,0 11.21261,6.20362 11.21261,6.93134 0,0.4393 0.39817,0.56218 0.88482,0.27305 0.48665,-0.28912 3.36392,0.6237 6.39392,2.02847 3.03002,1.40479 6.10441,2.65244 6.832,2.77256 1.84691,0.30493 5.28875,-1.97857 5.30502,-3.51963 0.011,-1.04125 0.15476,-1.06537 0.77168,-0.12945 0.53719,0.81497 0.9366,0.87272 1.37032,0.19812 0.33668,-0.52366 0.98158,-0.73263 1.43313,-0.46436 0.45153,0.26826 0.82098,0.15586 0.82098,-0.24979 0,-0.40565 2.07175,-1.24796 4.60388,-1.8718 2.53214,-0.62385 5.14376,-1.65323 5.80358,-2.28751 0.65984,-0.63429 1.54465,-0.94831 1.96627,-0.69782 0.42161,0.25048 1.21459,-0.34932 1.76218,-1.33287 0.54758,-0.98357 2.18823,-2.27035 3.64587,-2.85951 1.45764,-0.58916 6.9233,-5.13612 12.14592,-10.10435 5.22261,-4.96823 9.95171,-9.03314 10.50911,-9.03314 0.5574,0 0.91425,-0.29476 0.79298,-0.65502 -0.26472,-0.78641 6.04594,-6.33296 8.76123,-7.70041 1.05948,-0.53358 2.68465,-0.97013 3.61148,-0.97013 1.7238,0 4.96875,2.75814 4.15981,3.53576 -0.24655,0.23701 0.34788,1.12355 1.32097,1.97009 1.89063,1.64476 2.44787,3.47517 0.75106,2.46709 -0.63768,-0.37886 -0.7785,-0.23212 -0.37682,0.39264 0.3643,0.56664 -0.93252,3.21401 -3.00208,6.12854 -3.08699,4.34736 -3.52397,5.4774 -2.86129,7.39927 0.47174,1.36812 1.54219,2.3758 2.69738,2.5392 1.05338,0.149 1.91524,0.82607 1.91524,1.5046 0,0.67853 0.93791,1.57648 2.08425,1.99544 1.14633,0.41896 2.33151,1.64939 2.63371,2.7343 0.80108,2.8758 0.716,3.24421 -0.74932,3.24421 -0.72759,0 -1.32288,0.42231 -1.32288,0.93848 0,0.51616 0.59762,0.71803 1.32804,0.44859 0.88963,-0.32816 2.06847,0.63763 3.57093,2.92553 2.47854,3.77429 2.23852,6.70852 -0.54881,6.70852 -0.93742,0 -1.7044,0.32111 -1.7044,0.71358 0,0.39247 -1.65067,1.18899 -3.66818,1.77005 -5.21086,1.50077 -6.5322,2.95999 -3.77417,4.16798 4.45873,1.95289 1.75596,4.95587 -5.16849,5.74256 -2.03759,0.2315 -6.08589,0.73681 -8.99623,1.12292 -3.64244,0.48323 -5.68784,0.40185 -6.56322,-0.26114 -0.98973,-0.74962 -1.11733,-0.71652 -0.57549,0.14927 0.56437,0.90181 -1.2822,1.03586 -9.75232,0.70798 -5.74668,-0.22244 -11.56856,-0.42876 -12.9375,-0.45847 -1.67405,-0.0363 -2.27913,-0.38041 -1.84806,-1.05091 0.37096,-0.57698 0.26223,-0.77191 -0.25812,-0.46276 -1.16609,0.69278 -18.77323,-2.27805 -20.98053,-3.54002 -0.48506,-0.27731 -1.84119,-0.63084 -3.01362,-0.7856 -4.89891,-0.64666 -24.37359,-10.88035 -29.81075,-15.66515 -1.07643,-0.94727 -1.70962,-2.10731 -1.4071,-2.57786 0.33343,-0.51862 0.10126,-0.5889 -0.58957,-0.17848 -1.61391,0.95885 -16.18477,-13.71234 -15.44905,-15.5554 0.29413,-0.73683 0.24837,-1.06434 -0.1017,-0.72783 -0.70695,0.67958 -3.86634,-1.75138 -3.86634,-2.97492 0,-0.42732 -0.59895,-1.35269 -1.33099,-2.0564 -0.73204,-0.7037 -1.06759,-1.68915 -0.74565,-2.18988 0.32193,-0.50073 0.18254,-0.67112 -0.30976,-0.37864 -0.49229,0.29247 -1.60605,-0.98383 -2.475,-2.83624 -0.86895,-1.8524 -1.86812,-3.36801 -2.22037,-3.36801 -0.65194,0 -4.82415,-9.89834 -4.82415,-11.44501 0,-0.46628 -0.39688,-1.16295 -0.88192,-1.54815 -0.57106,-0.45351 -0.4916,-0.85251 0.2254,-1.13195 0.76345,-0.29755 0.48957,-0.92692 -0.88192,-2.0267 -1.0941,-0.87732 -1.71961,-1.60782 -1.39005,-1.62333 0.32956,-0.0155 -0.18934,-2.60334 -1.15309,-5.75071 -2.32874,-7.605 -3.52047,-14.79001 -4.6052,-27.76475 -0.15592,-1.86511 -0.53275,-4.72637 -0.83738,-6.35834 -0.30463,-1.63197 -0.74495,-4.68398 -0.9785,-6.78223 -0.65105,-5.84917 -1.54402,-9.32556 -2.39543,-9.32556 -0.60321,0 -1.14764,4.3202 -0.66772,5.29861 0.0571,0.11657 -0.55933,1.73795 -1.37001,3.60306 -0.81067,1.86512 -1.42327,3.4949 -1.36133,3.62175 0.37969,0.77749 -3.95129,12.90993 -4.60851,12.90993 -0.44302,0 -0.56898,0.36789 -0.2799,0.81752 0.28908,0.44963 -0.0542,4.16926 -0.76287,8.26584 -0.70865,4.09658 -1.20929,9.70139 -1.11251,12.45514 0.0977,2.7812 -0.33108,5.94629 -0.9647,7.1203 -0.62736,1.16242 -0.93512,2.31107 -0.68392,2.55255 0.2512,0.24147 0.45674,-0.006 0.45674,-0.55002 0,-0.54399 0.42028,-0.98908 0.93397,-0.98908 0.51368,0 0.68263,0.39093 0.37544,0.86873 -0.5952,0.92576 -0.94387,4.31569 -1.69819,16.51073 -0.25956,4.19651 -0.73446,10.10976 -1.0553,13.14057 -0.32083,3.03081 -0.68525,7.00656 -0.80979,8.835 -0.46954,6.89373 -1.47503,12.81991 -2.34873,13.84307 -0.60814,0.7122 -0.61101,1.05973 -0.009,1.05973 0.60012,0 0.61448,1.19027 0.0435,3.60306 -0.90638,3.83006 -1.41452,8.34264 -1.533,13.61449 -0.0399,1.77606 -0.44394,3.00857 -0.89782,2.73892 -0.50389,-0.29937 -0.53528,0.48159 -0.0806,2.00559 0.40955,1.37274 0.59907,2.63581 0.42117,2.80683 -0.25407,0.24424 -1.29735,12.70101 -1.52896,18.25587 -0.0243,0.58284 -0.39832,1.05972 -0.83116,1.05972 -0.43285,0 -0.49226,0.45841 -0.13204,1.01869 0.36021,0.56028 0.56599,2.46778 0.45727,4.23889 -0.18807,3.06402 -0.0676,3.22021 2.48383,3.22021 1.50174,0 3.45418,0.74277 4.43775,1.68826 1.61047,1.54812 4.14377,2.92183 13.51287,7.32749 4.7047,2.2123 9.55402,6.20496 8.85562,7.29124 -0.35459,0.55153 -0.16893,0.66312 0.47089,0.283 0.60356,-0.35858 2.45746,0.38527 4.32539,1.73548 5.50036,3.97592 15.25363,13.92975 14.61791,14.91853 -0.37753,0.58721 -0.18637,0.68496 0.51944,0.26562 1.4715,-0.87423 2.96341,1.38335 1.53447,2.32199 -0.68754,0.45164 -0.46384,0.6073 0.6413,0.44627 1.27305,-0.1855 2.52865,1.12974 5.0246,5.26326 1.8301,3.03081 3.17221,5.96279 2.98249,6.51551 -0.18974,0.55273 0.018,1.12498 0.4616,1.27167 0.44363,0.1467 2.33099,5.22789 4.19415,11.29154 2.67452,8.70425 3.36403,12.31084 3.27579,17.13463 -0.11172,6.10757 -0.11081,6.11 2.48814,6.65874 1.92745,0.40695 2.2844,0.74101 1.38008,1.29157 -1.31007,0.79758 -0.58035,1.04121 2.43629,0.81337 1.04075,-0.0786 3.41606,0.64216 5.27846,1.60171 1.86241,0.95955 3.72215,1.74464 4.13275,1.74464 1.04281,0 8.29509,5.68747 12.43183,9.74945 3.90154,3.83102 14.08218,18.40159 15.09355,21.60196 0.36554,1.15667 1.40225,3.06417 2.30382,4.23889 2.63726,3.43627 7.77006,18.58112 8.4816,25.02586 1.11888,10.13406 0.61696,22.49095 -1.0675,26.28114 -1.65258,3.71848 -1.55334,3.4174 -3.89993,11.8322 -0.90456,3.24377 -2.09553,6.04223 -2.6466,6.21881 -0.55105,0.17657 -0.79446,0.64373 -0.5409,1.03812 0.45486,0.70749 -2.1654,5.05375 -5.69452,9.44553 -0.99591,1.23945 -1.8108,2.69259 -1.8108,3.22921 0,0.53662 -0.29765,0.79901 -0.66144,0.5831 -0.3638,-0.21592 -0.71776,0.51059 -0.78661,1.61446 -0.0689,1.10387 -0.76335,2.62051 -1.54336,3.37032 -0.78002,0.74981 -1.41819,1.74004 -1.41819,2.20054 0,0.46049 -0.4582,0.56505 -1.01818,0.23234 -0.61093,-0.36296 -0.77956,-0.23375 -0.42158,0.32303 0.32812,0.51037 -0.0152,1.4277 -0.7629,2.03849 -0.74774,0.6108 -4.32388,4.45667 -7.94702,8.54638 -6.54582,7.38874 -9.40937,10.03975 -15.5397,14.38636 -1.76022,1.24804 -4.7367,3.71562 -6.6144,5.4835 -1.87771,1.76789 -4.80303,3.84963 -6.50073,4.62609 -11.81528,5.4039 -16.75649,8.0012 -16.75649,8.80791 0,0.51138 1.01692,1.84816 2.25984,2.97061 3.38518,3.05709 5.42013,6.71518 6.10327,10.97142 0.33677,2.09825 1.20905,5.84574 1.93839,8.32776 1.50059,5.10664 1.13858,11.82464 -0.69741,12.94229 -0.67422,0.41042 -0.79768,0.75207 -0.27437,0.75921 0.54314,0.008 1.03839,2.07792 1.15399,4.82451 0.11138,2.64634 0.22628,5.03072 0.25535,5.29862 0.19458,1.79296 -0.30312,2.62676 -1.25842,2.10829 -0.81596,-0.44282 -0.84999,-0.33434 -0.13098,0.41751 0.53429,0.55869 0.784,1.95837 0.5549,3.1104 -0.35729,1.79668 -0.6209,1.9412 -1.85336,1.01608 -1.29067,-0.96884 -1.30881,-0.92196 -0.17822,0.46089 1.05565,1.29123 1.0748,2.02794 0.11882,4.56933 -0.62686,1.66645 -1.23938,4.64712 -1.36117,6.62371 -0.12177,1.97659 -0.82699,4.68914 -1.56715,6.0279 -0.74016,1.33876 -3.47205,6.32556 -6.07086,11.08178 -2.59882,4.75623 -5.51884,9.55484 -6.48896,10.66358 -0.97012,1.10875 -2.17511,2.70509 -2.67777,3.54744 -0.50268,0.84234 -1.27677,1.45182 -1.7202,1.35438 -0.44342,-0.0974 -1.10248,0.59269 -1.46457,1.53361 -0.78966,2.05202 -9.49303,8.79037 -14.42164,11.16556 -1.94023,0.93503 -4.71828,2.64328 -6.17344,3.7961 -1.45517,1.15283 -3.15503,2.09794 -3.77748,2.10026 -0.62244,0.003 -3.16127,0.99285 -5.64185,2.20118 -2.48057,1.20834 -5.68459,2.33986 -7.12002,2.5145 -1.43542,0.17463 -3.06368,0.67613 -3.61831,1.11444 -0.55465,0.43831 -2.19904,1.02227 -3.6542,1.29768 -7.66546,1.45082 -12.48647,2.46177 -13.66977,2.86648 -0.7276,0.24885 -1.66231,0.37851 -2.07717,0.28812 -0.41483,-0.0904 -1.22685,0.2127 -1.80448,0.67351 -1.31746,1.05108 -0.83216,1.02129 -23.01695,1.41291 -17.14588,0.30268 -33.55989,-0.73401 -32.71704,-2.06636 0.19094,-0.30184 -1.13828,-0.63102 -2.95383,-0.73153 -1.81555,-0.1005 -6.19429,-1.186 -9.73055,-2.41222 -6.19385,-2.14775 -8.90321,-3.42495 -19.41975,-9.1545 -2.66781,-1.45346 -6.43803,-3.48217 -8.37825,-4.50824 -1.94023,-1.02606 -3.43323,-2.25674 -3.31779,-2.73483 0.11546,-0.47809 -0.38063,-0.65141 -1.1024,-0.38517 -0.72176,0.26625 -1.3123,0.0875 -1.3123,-0.39727 0,-0.48474 -0.79138,-1.1228 -1.75862,-1.41791 -0.96723,-0.2951 -2.26776,-0.98844 -2.89004,-1.54074 -2.08908,-1.85415 -6.73706,-4.81919 -7.55453,-4.81919 -0.4453,0 -1.29946,-0.56734 -1.89812,-1.26077 -1.62362,-1.88061 -3.7468,-0.29907 -4.10907,3.06086 -0.64317,5.96493 -2.60136,14.77945 -3.63255,16.35133 -1.05817,1.61302 -3.67403,9.34032 -3.70397,10.94156 -0.0159,0.8471 -1.02095,2.79061 -2.23359,4.31891 -1.21264,1.52831 -2.2048,3.04716 -2.2048,3.37522 0,0.32806 -1.09138,1.4992 -2.42529,2.60252 -1.92794,1.59467 -2.69656,1.80364 -3.74816,1.01906 -1.128,-0.84159 -1.15824,-0.78427 -0.20527,0.38917 0.61469,0.75689 0.85822,2.02599 0.54117,2.82023 -0.55803,1.39789 -4.43452,3.44685 -5.91346,3.12562 -0.39984,-0.0869 -0.51939,0.165 -0.26566,0.55965 0.51123,0.79518 -2.4936,3.56335 -3.86799,3.56335 -0.47952,0 -0.87184,0.33453 -0.87184,0.74338 0,0.40886 -1.88511,1.57563 -4.18912,2.59282 -2.30403,1.0172 -5.37973,2.46131 -6.83489,3.20913 -1.45517,0.74784 -3.43192,1.73756 -4.39278,2.19941 -3.02459,1.45378 -22.63159,7.36305 -24.4307,7.36305 -0.94531,0 -2.5856,0.44875 -3.64508,0.99722 -3.25351,1.68426 -14.73118,2.86112 -21.32861,2.18692 z m 16.53301,-14.21554 c 11.24072,-2.68378 21.3944,-6.164 29.8822,-10.24225 2.73071,-1.31206 5.27473,-2.11712 5.65339,-1.78903 0.37865,0.3281 0.40299,0.11968 0.0541,-0.46317 -0.34893,-0.58285 -0.21006,-1.05972 0.30861,-1.05972 1.5505,0 9.9141,-5.96476 13.95532,-9.95269 5.52903,-5.45612 12.6127,-20.95561 13.85557,-30.31679 0.24761,-1.86512 0.66356,-4.72637 0.92433,-6.35834 0.26075,-1.63198 0.71509,-5.92385 1.00961,-9.53751 0.29452,-3.61366 0.87566,-6.57028 1.29141,-6.57028 0.41574,0 0.75589,-0.71629 0.75589,-1.59176 0,-0.87546 0.59799,-2.06882 1.32886,-2.6519 1.90242,-1.51775 8.76993,0.43969 10.5126,2.99639 0.72761,1.06746 2.30776,2.96237 3.51146,4.2109 1.20371,1.24854 4.09547,4.35276 6.42615,6.89826 7.2285,7.89475 14.41021,12.5217 35.04619,22.57909 0.93787,0.45709 5.48208,1.96595 10.09827,3.35303 6.92791,2.0817 10.71004,2.63975 21.66569,3.1967 12.05392,0.61279 26.56406,0.4594 32.23393,-0.34076 1.21264,-0.17114 5.97501,-1.45272 10.58305,-2.84797 4.60803,-1.39524 11.1563,-3.17366 14.55169,-3.95203 7.73018,-1.7721 13.06261,-4.22206 22.70289,-10.43072 8.2808,-5.33311 16.35292,-13.93718 20.89036,-22.26701 2.05777,-3.77767 2.9325,-4.63299 4.60807,-4.50582 1.2994,0.0986 1.49447,-0.003 0.5248,-0.27411 -1.9476,-0.54398 -1.96358,-0.41373 0.66144,-5.39342 1.21265,-2.30038 2.20481,-5.15472 2.20481,-6.34295 10e-6,-2.65398 2.72886,-12.30817 3.47904,-12.30817 0.58867,0 1.26544,-9.10264 1.30385,-17.53678 0.0208,-4.56527 0.19794,-5.11581 1.36867,-4.25351 0.83746,0.61683 0.75122,0.31914 -0.2286,-0.7891 -0.86537,-0.97878 -1.97393,-4.17049 -2.4635,-7.0927 -0.9879,-5.89677 -2.26708,-8.65811 -5.55433,-11.98989 -1.21567,-1.23215 -1.96924,-2.47202 -1.67457,-2.75528 0.29466,-0.28326 0.12651,-0.515 -0.37365,-0.515 -0.50017,0 -2.2226,-1.10216 -3.82762,-2.44924 -3.8522,-3.23314 -4.44617,-7.7773 -1.27749,-9.77313 1.17194,-0.73815 2.75585,-1.34209 3.51982,-1.34209 0.76398,0 2.99916,-0.78961 4.96706,-1.7547 1.96791,-0.96508 3.79796,-1.54326 4.06679,-1.28484 0.26883,0.25841 0.9588,-0.14805 1.53325,-0.90326 0.57446,-0.7552 2.26639,-1.4169 3.75985,-1.47043 1.49345,-0.0536 2.65013,-0.39137 2.57041,-0.75076 -0.0797,-0.35938 1.80061,-1.69463 4.17855,-2.96722 2.37795,-1.27259 6.10486,-3.8854 8.28206,-5.80625 2.43224,-2.14587 4.54754,-3.34438 5.48617,-3.10843 1.05741,0.26582 1.81978,-0.35536 2.47677,-2.01811 1.1397,-2.8844 4.45888,-6.51858 6.71297,-7.35007 0.89837,-0.33139 1.3701,-0.85565 1.04828,-1.16501 -0.74066,-0.71197 5.6742,-7.09798 6.58594,-6.5563 0.3713,0.22059 0.9551,-0.46283 1.2973,-1.51873 0.34221,-1.0559 1.7492,-3.29707 3.12661,-4.98038 1.37742,-1.68331 2.27795,-3.27826 2.00117,-3.54432 -0.27677,-0.26606 0.32914,-0.98345 1.34649,-1.5942 1.01736,-0.61075 1.84973,-1.88066 1.84973,-2.82203 0,-1.7795 3.20033,-4.31825 5.00453,-3.96999 0.56975,0.10997 1.28488,-0.1873 1.58917,-0.66061 0.32514,-0.5057 -0.0111,-0.65236 -0.81541,-0.35566 -0.75278,0.27769 -1.36868,0.32181 -1.36868,0.0981 0,-1.04909 3.67844,-8.24188 4.44908,-8.69973 0.47917,-0.28466 0.63213,-0.88943 0.33993,-1.34391 -0.2922,-0.45449 -0.13775,-1.28651 0.34323,-1.84892 0.48095,-0.56243 1.55519,-3.3116 2.38719,-6.10926 0.83199,-2.79767 1.80757,-5.46818 2.16795,-5.93445 0.36038,-0.46628 0.68475,-1.42003 0.7208,-2.11945 0.17252,-3.34646 0.61607,-5.08667 1.29651,-5.08667 0.41046,0 0.49697,-0.38779 0.19224,-0.86177 -1.44533,-2.24807 -1.35894,-5.49055 0.17706,-6.64487 1.29566,-0.97372 1.32356,-1.10974 0.14829,-0.72329 -1.22373,0.4024 -1.5085,-0.39906 -1.84219,-5.18456 -0.45505,-6.52603 -0.78134,-7.96474 -2.00185,-8.82672 -0.52387,-0.36999 -0.36594,-0.62812 0.38905,-0.63583 1.01697,-0.0103 0.98254,-0.22475 -0.17234,-1.0727 -0.79382,-0.58285 -2.2321,-3.01187 -3.19619,-5.39782 -1.35833,-3.36164 -1.51805,-4.58238 -0.70958,-5.42339 0.81992,-0.85292 0.74346,-0.98481 -0.35704,-0.616 -1.02203,0.34251 -2.08784,-0.82619 -3.94518,-4.32606 -11.24537,-21.19017 -21.0034,-29.25247 -35.15752,-29.04794 -5.06325,0.0732 -6.70318,-0.22798 -8.11189,-1.48959 -0.97112,-0.8697 -2.5467,-1.9831 -3.5013,-2.47421 -0.95461,-0.49111 -1.79853,-1.69546 -1.8754,-2.67633 -0.0919,-1.17306 0.21927,-1.57637 0.90928,-1.17846 0.67698,0.3904 0.6401,0.11979 -0.10401,-0.76302 -0.7727,-0.91675 -0.88822,-1.87927 -0.35024,-2.91802 3.26009,-6.29467 3.98654,-8.21763 3.87379,-10.25426 -0.16499,-2.98025 -0.59674,-5.38108 -1.25518,-6.97969 -1.80861,-4.39104 -3.17052,-9.56169 -2.77768,-10.54578 0.25284,-0.63338 0.0293,-1.40731 -0.49672,-1.71984 -0.52604,-0.31252 -0.7281,-0.92336 -0.44903,-1.35742 0.27907,-0.43405 0.0603,-0.7892 -0.48601,-0.7892 -0.60762,0 -0.77664,-0.74075 -0.43524,-1.9075 0.36195,-1.23692 0.28159,-1.5265 -0.22856,-0.82372 -0.58399,0.80449 -1.05631,0.51504 -1.83282,-1.12325 -0.57535,-1.21387 -0.78129,-2.61889 -0.45766,-3.12227 0.34195,-0.53188 0.17768,-0.67121 -0.39219,-0.33264 -0.56916,0.33814 -1.56099,-0.49623 -2.36372,-1.98846 -0.7607,-1.41408 -1.17332,-2.57106 -0.91694,-2.57106 0.25638,0 -1.11917,-1.37679 -3.05677,-3.05953 -1.93762,-1.68274 -3.29828,-3.40895 -3.02371,-3.83601 0.27457,-0.42706 0.1299,-0.67164 -0.3215,-0.54353 -1.15183,0.32695 -9.83044,-7.58448 -9.13781,-8.33001 0.31198,-0.3358 0.0811,-0.34201 -0.51315,-0.0138 -0.63768,0.35222 -2.62982,-0.77615 -4.86158,-2.75368 -4.68134,-4.14805 -21.26889,-13.66145 -22.22222,-12.74502 -0.37102,0.35664 -1.21514,9.63944 -1.32654,14.58797 -0.0377,1.67157 -0.38222,2.19165 -1.15601,1.74476 -0.85503,-0.49379 -0.87185,-0.36234 -0.075,0.5858 1.33136,1.58412 1.32785,1.87106 -0.0696,5.67847 -0.64759,1.76436 -1.10351,4.15405 -1.01317,5.31041 0.0904,1.15636 -0.0475,2.48398 -0.30637,2.95026 -0.86084,1.55076 -0.81637,2.96723 0.0931,2.96723 0.51691,0 0.62033,0.62984 0.2436,1.48361 -0.36007,0.81599 -0.60541,2.34199 -0.5452,3.39111 0.0602,1.04913 -0.2654,1.90751 -0.72356,1.90751 -0.48978,0 -0.67828,3.23126 -0.45748,7.84195 0.37684,7.86879 -0.67782,12.99554 -2.45604,11.93908 -0.53545,-0.31812 -0.65078,-0.13184 -0.27768,0.44849 0.35099,0.54592 1.01485,0.76881 1.47523,0.4953 0.80638,-0.47908 0.62785,2.17475 -0.50493,7.50566 -0.27736,1.30528 -0.21682,2.82038 0.13453,3.36687 0.65331,1.01615 0.65541,4.79043 0.004,7.82435 -0.20012,0.93255 0.01,2.38877 0.46623,3.23602 0.58159,1.07931 0.41827,2.14461 -0.54554,3.55863 -0.75659,1.11 -1.1392,2.61042 -0.85024,3.33427 0.37828,0.94762 -0.0566,1.34362 -1.55331,1.41443 -1.55347,0.0735 -1.67946,0.19802 -0.49866,0.49284 1.04626,0.26122 1.41195,0.90357 1.0825,1.90141 -0.27365,0.82881 0.0698,1.95954 0.76321,2.51274 0.69341,0.5532 1.13263,2.0377 0.97602,3.29886 -0.15659,1.26117 -0.56,6.48954 -0.89642,11.6186 -0.44092,6.72187 -1.01566,9.79489 -2.05851,11.00652 -1.27169,1.47748 -1.27571,1.55441 -0.0332,0.63554 1.26964,-0.93894 1.42977,-0.28996 1.57247,6.37295 0.0874,4.08009 0.18088,7.79985 0.20778,8.26613 0.0902,1.56257 -1.03209,9.97829 -1.40877,10.56417 -0.20472,0.31844 -0.47007,2.17289 -0.58964,4.12102 -0.11958,1.94812 -0.56011,3.54204 -0.97896,3.54204 -0.41885,0 -0.48885,0.42416 -0.15556,0.94257 0.3333,0.51841 0.23839,1.18604 -0.21092,1.48361 -0.44931,0.29758 -1.71762,1.78073 -2.81847,3.29589 l -2.00157,2.75484 -8.97995,-0.5445 c -14.72277,-0.8927 -16.71707,-0.88302 -21.32686,0.10356 -8.96388,1.91841 -13.6494,-0.62925 -13.68327,-7.44002 -0.0186,-3.74256 -1.01883,-4.92825 -4.23141,-5.01605 -1.51235,-0.0414 -2.60364,-0.3036 -2.42507,-0.58281 0.17855,-0.2792 -1.03855,-0.60377 -2.70468,-0.72124 -3.7043,-0.26119 -12.75646,-4.5732 -14.08022,-6.70714 -1.10557,-1.78223 -1.0138,-23.53389 0.13891,-32.92486 0.40064,-3.26394 0.61521,-6.31595 0.47682,-6.78222 -0.28876,-0.97293 -0.96701,-29.18179 -1.04976,-43.6606 -0.0307,-5.3622 -0.25044,-11.38265 -0.48844,-13.37878 l -0.4327,-3.62934 -12.06828,0.50472 c -6.63755,0.27759 -22.8522,0.63021 -36.03255,0.78359 -13.18036,0.15337 -24.42215,0.55088 -24.98176,0.88335 -1.19896,0.71232 -7.05578,1.07663 -7.05624,0.43892 -1.7e-4,-0.24122 -5.99038,-0.43858 -13.31157,-0.43858 -7.3212,0 -13.50585,-0.30164 -13.74369,-0.67032 -0.23783,-0.36868 -1.09353,-0.48002 -1.90156,-0.24742 -2.28608,0.65805 -18.51363,1.58904 -24.39908,1.39979 -18.85326,-0.60624 -17.77239,-1.03992 -18.61198,7.46785 -0.25306,2.56431 -0.51035,4.87663 -0.57175,5.13848 -0.0614,0.26184 0.2405,5.43558 0.67091,11.49719 0.43042,6.06162 0.71021,12.35638 0.62179,13.98835 -0.0884,1.63197 -0.2879,6.01923 -0.44323,9.74945 -0.5842,14.02886 -1.43628,28.04987 -1.82896,30.09614 -0.22372,1.1657 -0.83739,7.07895 -1.36371,13.14057 -0.52634,6.06161 -1.13874,13.11937 -1.36092,15.6839 -0.22215,2.56453 -0.42174,5.54368 -0.4435,6.62032 -0.0265,1.31386 -0.40204,1.7608 -1.14195,1.35924 -0.83178,-0.45143 -0.85682,-0.3421 -0.10201,0.44534 1.67801,1.75057 0.37069,3.93594 -3.04715,5.09375 -1.78462,0.60455 -5.42752,2.054 -8.09533,3.22099 -2.6678,1.16699 -6.23959,2.3064 -7.93729,2.53202 -1.6977,0.22562 -3.75515,0.75055 -4.57211,1.16651 -0.81694,0.41596 -4.27819,0.75629 -7.69166,0.75629 -7.30699,0 -14.69201,-2.67961 -17.09299,-6.20211 -1.5807,-2.31906 -2.02617,-4.37768 -0.78812,-3.64215 0.39729,0.23603 0.55067,-0.6952 0.34086,-2.06941 -0.23728,-1.55411 0.009,-2.49856 0.65259,-2.49856 0.56873,0 0.80574,0.35514 0.52667,0.7892 -0.27907,0.43406 -0.1389,1.00812 0.31149,1.2757 0.45039,0.26758 0.72659,-0.11806 0.61376,-0.85699 -0.11281,-0.73893 -0.63179,-1.59912 -1.15327,-1.91154 -0.52149,-0.31243 -0.83721,-2.12583 -0.70161,-4.0298 l 0.24653,-3.46177 -6.37188,0 c -4.90813,0 -6.88934,-0.37327 -8.62437,-1.6249 -3.29378,-2.37609 -5.72371,-6.24299 -6.34844,-10.1027 -0.82592,-5.10266 -1.33519,-16.76449 -0.77046,-17.64287 0.27297,-0.42458 0.59641,-4.06788 0.71875,-8.09622 0.12234,-4.02835 0.43726,-8.46877 0.69981,-9.8676 l 0.47739,-2.54334 -15.25834,0.14555 c -8.39207,0.08 -16.79405,-0.21198 -18.67106,-0.64896 -1.877,-0.43698 -4.80176,-0.9854 -6.49946,-1.21872 -7.15876,-0.98387 -14.62533,-4.41508 -14.43078,-6.63157 0.0665,-0.75763 -0.18603,-1.19515 -0.56117,-0.97228 -0.37516,0.22288 -0.88849,-0.35347 -1.14075,-1.28079 -0.25833,-0.94961 -0.0132,-1.71525 0.56117,-1.75295 0.68487,-0.0449 0.65776,-0.20738 -0.0825,-0.49454 -0.60632,-0.23518 -1.1024,-0.99057 -1.1024,-1.67866 0,-0.68808 0.33072,-1.05456 0.73493,-0.81442 0.40422,0.24015 0.73494,-0.0825 0.73494,-0.71692 0,-0.63445 -0.47794,-0.97724 -1.06209,-0.76176 -0.58415,0.21548 -1.29928,-0.20239 -1.58918,-0.92861 -0.34707,-0.86943 -0.009,-1.34324 0.98859,-1.38732 1.22287,-0.054 1.26012,-0.16044 0.19281,-0.551 -1.86973,-0.68419 -2.61668,-1.99822 -2.63227,-4.63065 -0.007,-1.25474 -0.35493,-2.48421 -0.77224,-2.73213 -0.41732,-0.24794 -1.01145,-2.08257 -1.3203,-4.07699 -1.20134,-7.75763 -1.6377,-9.74769 -3.32241,-15.15231 -0.95867,-3.07542 -1.80743,-6.41354 -1.88615,-7.41806 -0.0788,-1.00448 -0.40455,-1.82636 -0.72389,-1.82636 -0.31933,0 -0.83662,-1.85508 -1.1495,-4.12239 l -0.56889,-4.12239 -5.47844,-0.47754 c -9.57769,-0.83486 -17.12086,0.61801 -21.83446,4.20547 -0.72867,0.55459 -2.4748,1.58184 -3.88029,2.28279 -2.25483,1.12453 -11.08774,8.39509 -18.42096,15.16268 -1.38943,1.28227 -2.916,2.33139 -3.39237,2.33139 -0.47637,0 -0.62095,0.38135 -0.32129,0.84743 0.29965,0.46609 -1.18808,3.04121 -3.30606,5.72251 -5.08391,6.43603 -7.85013,11.23826 -10.62168,18.43953 -4.64632,12.07244 -5.32907,15.2998 -4.7131,22.2787 1.15942,13.13602 3.4294,17.88605 14.23145,29.77994 2.42528,2.67042 5.23891,5.8116 6.25249,6.98039 2.03969,2.35201 3.23448,6.63485 2.26962,8.13561 -0.62794,0.97669 -4.27243,2.0219 -7.77645,2.23023 -1.04506,0.0621 -1.71035,0.40812 -1.47842,0.76886 0.23193,0.36074 -1.49264,1.46189 -3.83238,2.44701 -2.33973,0.98512 -5.34274,2.52622 -6.67333,3.42467 -1.33059,0.89845 -2.73645,1.4451 -3.12413,1.21477 -0.38767,-0.23031 -0.75985,0.28299 -0.82706,1.14068 -0.16927,2.1601 -3.97227,7.62538 -5.315,7.63816 -0.60632,0.006 -1.1024,0.41452 -1.1024,0.90831 0,0.4938 0.49608,0.62303 1.1024,0.28719 0.60632,-0.33585 0.30868,0.30926 -0.66144,1.43358 -0.97011,1.12431 -2.19641,2.8072 -2.72511,3.73976 -0.5287,0.93255 -2.00907,3.50768 -3.28973,5.7225 -1.28065,2.21482 -2.1277,4.02695 -1.88233,4.02695 0.60842,0 -2.1724,5.19658 -3.65308,6.8266 -0.65751,0.72383 -1.31564,2.05908 -1.46252,2.96723 -0.14689,0.90815 -0.52235,2.04359 -0.83436,2.5232 -0.31202,0.47961 -1.44602,4.10386 -2.52,8.05389 -1.63954,6.03003 -1.95641,9.49335 -1.97577,21.59412 -0.0227,14.18062 0.42705,20.66287 1.55531,22.41776 0.31464,0.48937 0.74799,1.65421 0.96302,2.58852 0.21503,0.93431 0.55156,2.36637 0.74784,3.18235 0.65144,2.70814 4.08104,10.75322 6.27101,14.71037 1.18744,2.14565 1.86862,4.20969 1.51371,4.58675 -0.3549,0.37707 -0.1926,0.43694 0.36066,0.13304 0.55504,-0.30487 1.69934,0.46478 2.55291,1.71706 0.85084,1.24827 2.77935,3.58192 4.28559,5.18589 1.50624,1.60396 2.62957,3.27824 2.49628,3.7206 -0.13327,0.44236 0.10689,0.59683 0.53371,0.34325 0.42682,-0.25358 2.78237,1.62556 5.23455,4.17588 2.45219,2.5503 4.69868,4.63692 4.99221,4.63692 1.1182,0 11.04657,7.39497 10.6372,7.92294 -0.23661,0.30517 -0.17567,0.37376 0.13542,0.15243 0.31108,-0.22133 2.59305,0.64377 5.07104,1.92245 4.77957,2.46632 10.5843,4.78744 19.93905,7.97293 4.9888,1.69881 7.27702,1.93785 17.6384,1.84265 10.8478,-0.0997 12.64267,-0.34689 20.19563,-2.78161 8.17766,-2.63609 15.72569,-6.52071 20.73039,-10.66896 3.04523,-2.52409 5.2416,-2.66148 9.2783,-0.58039 4.20123,2.16592 5.25036,6.23805 5.26089,20.41977 0.0103,13.85875 0.50668,20.13018 1.70309,21.51593 1.6271,1.88466 4.60097,10.03859 4.00134,10.97122 -0.3243,0.50441 -0.20371,0.68784 0.26798,0.4076 0.47169,-0.28023 1.8791,1.49264 3.12759,3.93972 3.17278,6.21872 9.69229,15.67213 13.23971,19.19784 5.85698,5.82111 14.41894,12.45637 18.32445,14.20091 5.24944,2.34484 19.81428,7.50247 24.25282,8.58829 5.08176,1.24316 24.07224,4.30765 28.22146,4.55408 1.94023,0.11524 4.61772,0.31085 5.94997,0.43471 1.33226,0.12386 7.28522,-0.93586 13.22881,-2.35492 z M 566.89085,569.93147 c 0.29978,-0.46628 0.72006,-0.84778 0.93398,-0.84778 0.21389,0 0.3889,0.3815 0.3889,0.84778 0,0.46628 -0.42028,0.84778 -0.93398,0.84778 -0.51368,0 -0.68868,-0.3815 -0.3889,-0.84778 z M 255.59614,826.97209 c -0.27153,-0.26102 -0.98315,-5.4e-4 -1.58139,0.57885 -0.86451,0.83728 -0.76321,0.93466 0.4937,0.47459 0.86977,-0.31837 1.35923,-0.79241 1.08769,-1.05344 z m -25.71912,-13.29943 c -0.27813,-0.69674 -0.90335,-1.03055 -1.38936,-0.7418 -0.54336,0.32281 -0.42285,0.80567 0.31289,1.25382 1.60581,0.9781 1.66085,0.95192 1.07647,-0.51202 z m 254.0756,-14.78241 c 0.27908,-0.43406 0.1702,-0.98952 -0.24192,-1.23437 -0.41213,-0.24485 -0.74932,0.11029 -0.74932,0.7892 0,1.42949 0.2781,1.55439 0.99124,0.44517 z M 206.6262,787.81055 c 0,-0.46628 -0.17501,-0.84778 -0.38891,-0.84778 -0.2139,0 -0.63419,0.3815 -0.93397,0.84778 -0.29978,0.46628 -0.12477,0.84778 0.38892,0.84778 0.51368,0 0.93396,-0.3815 0.93396,-0.84778 z m -45.85988,-38.15003 c 0,-0.46628 -0.42029,-0.84778 -0.93397,-0.84778 -0.51368,0 -0.68869,0.3815 -0.38891,0.84778 0.29978,0.46628 0.72008,0.84778 0.93397,0.84778 0.2139,0 0.38891,-0.3815 0.38891,-0.84778 z M 95.8407,727.99813 c 0.30117,-0.75445 0.15332,-1.09475 -0.34661,-0.79774 -0.4795,0.28487 -0.87182,0.87694 -0.87182,1.3157 0,1.21947 0.63214,0.95075 1.21843,-0.51796 z m -31.978,-36.5588 c -1.03964,-1.71863 -1.2907,-1.16854 -0.43966,0.96336 0.30244,0.75766 0.73569,1.19898 0.96275,0.9807 0.22707,-0.21827 -0.008,-1.09311 -0.52309,-1.94406 z m 536.40451,-26.16934 c -0.28723,-0.71953 -0.71138,-1.12641 -0.94255,-0.90418 -0.23118,0.22223 -0.15873,0.81093 0.16099,1.30823 0.86962,1.3526 1.3779,1.08983 0.78156,-0.40405 z m -0.72196,-10.39694 c -0.27153,-0.26102 -0.98315,-5.4e-4 -1.5814,0.57885 -0.86451,0.83728 -0.76321,0.93466 0.4937,0.47459 0.86977,-0.31837 1.35923,-0.79241 1.0877,-1.05344 z m 29.52101,-9.82248 c 0,-0.18325 -0.6159,-0.56038 -1.36868,-0.83807 -0.78484,-0.28951 -1.13885,-0.14738 -0.82987,0.33319 0.51791,0.80557 2.19855,1.19151 2.19855,0.50488 z M 58.86681,621.70454 c 0.27908,-0.43406 0.17021,-0.98953 -0.24192,-1.23437 -0.41213,-0.24485 -0.74932,0.11029 -0.74932,0.78919 0,1.4295 0.2781,1.5544 0.99124,0.44518 z m 210.87651,-37.26788 c -0.43269,-0.67299 3.55608,-1.85449 7.60678,-2.25319 0.82121,-0.0808 3.66003,-0.9924 6.3085,-2.02571 5.50989,-2.14973 5.37319,-1.81469 6.37006,-15.61307 0.374,-5.17673 0.89131,-7.91742 1.3602,-7.20611 0.41616,0.63134 0.76275,0.74731 0.77017,0.25771 0.007,-0.48959 -0.43606,-1.32232 -0.98553,-1.85051 -0.59348,-0.5705 -0.71337,-1.58575 -0.2954,-2.50095 0.38702,-0.84733 0.66579,-2.58972 0.61951,-3.87199 -0.0463,-1.28226 0.18587,-2.3316 0.51588,-2.33186 0.33001,-2.7e-4 0.65924,-2.00314 0.73165,-4.45084 0.36836,-12.453 0.56794,-15.54254 1.05427,-16.31926 0.29193,-0.46628 0.40832,-3.18952 0.25864,-6.05166 -0.16479,-3.15083 0.11114,-5.43161 0.69939,-5.78108 0.53434,-0.31747 0.67506,-1.02772 0.31269,-1.57836 -0.75067,-1.14066 -1.4452,-16.01904 -1.52235,-32.61202 -0.0424,-9.12926 0.19837,-11.41652 1.27052,-12.06786 0.92681,-0.56306 0.98353,-0.80755 0.18945,-0.81665 -0.83796,-0.01 -0.90073,-0.43097 -0.24076,-1.61638 0.49096,-0.88185 1.07531,-3.01899 1.29855,-4.74917 0.82625,-6.40377 0.70436,-6.37328 25.57307,-6.39669 12.16946,-0.0114 31.51353,-0.10418 42.98681,-0.20606 12.26703,-0.10894 20.6578,0.13064 20.3684,0.58158 -0.28088,0.43766 0.0159,0.46499 0.69143,0.0637 1.4183,-0.84263 4.8286,-1.00756 35.68868,-1.726 27.13414,-0.63169 37.20836,-0.72587 51.62395,-0.48261 7.48209,0.12626 11.03042,-0.17243 13.41194,-1.12897 4.25271,-1.7081 6.77881,-1.36431 9.57059,1.30257 2.2257,2.12612 2.53878,3.63989 1.47645,7.13898 -0.28312,0.93256 -0.75985,2.75308 -1.05939,4.04563 -0.48507,2.09313 -0.75917,2.25022 -2.50724,1.43684 -1.92039,-0.89356 -1.92467,-0.88405 -0.19881,0.44165 1.52879,1.1743 1.75736,2.33863 1.71515,8.7365 -0.0959,14.53238 -0.84221,29.16723 -1.50763,29.56256 -0.37248,0.2213 -0.45574,0.74687 -0.18503,1.16793 0.41167,0.6403 0.74905,40.17882 0.36504,42.77786 -0.0689,0.46627 -0.0547,2.08687 0.0315,3.60132 0.13182,2.31535 -0.0996,2.67363 -1.454,2.25142 -1.20679,-0.3762 -1.31078,-0.29609 -0.41465,0.31939 0.65786,0.45184 1.31148,2.68145 1.4525,4.9547 0.14102,2.27325 0.66644,5.37306 1.1676,6.88846 0.50117,1.5154 0.64126,2.76688 0.31131,2.78106 -0.32992,0.0142 0.12803,0.4326 1.01768,0.92982 1.14816,0.64169 1.46443,1.49049 1.08988,2.92503 -0.49781,1.90667 -0.38975,1.96967 1.91014,1.11357 1.37962,-0.51354 6.41923,-0.78241 11.61019,-0.61942 8.58161,0.26945 9.19726,0.1788 9.55864,-1.40755 0.45745,-2.00792 1.0729,-16.06376 1.225,-27.9767 0.0616,-4.825 0.53559,-9.0045 1.10011,-9.70024 0.76579,-0.94382 0.73255,-1.07256 -0.14587,-0.5648 -0.84186,0.48663 -1.01308,0.14312 -0.65835,-1.32088 0.63699,-2.62891 1.26976,-10.09295 1.82076,-21.47744 0.83409,-17.23345 1.3819,-24.83112 2.54986,-35.36425 0.24373,-2.19804 0.67628,-10.20955 0.96121,-17.80335 0.28494,-7.5938 0.70569,-14.66833 0.93502,-15.72118 0.22933,-1.05285 0.60705,-4.86786 0.8394,-8.47778 0.23235,-3.60994 0.60392,-9.42476 0.82571,-12.92185 0.22179,-3.49709 0.83196,-9.27199 1.35594,-12.83312 0.52396,-3.56113 0.89077,-6.80388 0.81512,-7.20612 -0.33381,-1.77476 0.25548,-9.10213 0.6554,-8.1494 0.24465,0.58285 0.87013,1.05973 1.38994,1.05973 0.51982,0 0.30839,-0.67634 -0.46983,-1.50298 -0.87125,-0.92544 -1.13475,-1.9388 -0.68575,-2.63718 0.40107,-0.62382 0.52251,-1.89403 0.26988,-2.8227 -0.25777,-0.94754 0.0799,-2.01673 0.76954,-2.43651 0.78444,-0.47749 0.85193,-0.7527 0.18663,-0.761 -1.42436,-0.0177 -0.86695,-4.22284 0.68498,-5.16732 1.00141,-0.60943 1.01103,-0.75663 0.0502,-0.76713 -1.14176,-0.0125 -1.06826,-3.06185 0.30673,-12.72965 0.1658,-1.1657 0.5628,-4.2177 0.88225,-6.78223 0.31945,-2.56453 0.73157,-5.61653 0.91581,-6.78223 1.13051,-7.1525 2.91953,-31.28872 3.55039,-47.89949 0.53377,-14.05399 0.59227,-14.57994 2.66359,-23.94974 0.28347,-1.28226 0.85765,-4.16058 1.27597,-6.39626 0.88775,-4.74444 1.51296,-6.85815 3.06067,-10.34736 2.05652,-4.63629 4.23952,-13.49823 4.48997,-18.22724 0.26754,-5.05113 -1.77971,-14.40011 -3.89858,-17.80336 -3.21031,-5.15627 -19.63851,-18.56824 -31.48921,-25.70777 -7.30933,-4.40354 -8.7642,-4.93711 -17.63842,-6.46877 -5.31958,-0.91816 -15.01155,-1.90048 -21.53768,-2.18293 -6.52615,-0.28247 -12.12487,-0.66753 -12.44162,-0.85572 -0.31675,-0.18819 -9.2643,-0.39884 -19.88344,-0.46813 -17.32986,-0.11308 -20.12055,0.0689 -27.24482,1.77657 -10.4251,2.49888 -14.6239,2.76809 -15.95153,1.02273 -1.09055,-1.43367 -1.19755,-1.06136 -2.62384,9.12902 -0.29235,2.08879 -1.0603,5.0143 -1.70656,6.50114 -0.64626,1.48683 -0.95356,2.91622 -0.68289,3.17641 0.27068,0.26019 -0.15768,0.71279 -0.95191,1.00576 -0.79422,0.29297 -1.24155,0.84763 -0.99406,1.23257 0.5565,0.86558 -2.99216,11.64878 -4.58597,13.93526 -0.64112,0.91973 -1.16566,2.15059 -1.16566,2.73523 0,1.54279 -7.91392,12.58522 -8.8484,12.34633 -0.43409,-0.11099 -0.58228,0.3167 -0.32931,0.95041 0.25297,0.63369 -0.059,1.67824 -0.69318,2.32121 -0.63422,0.64298 -2.23253,2.69504 -3.55182,4.56015 -1.31928,1.86512 -3.40282,4.11218 -4.63008,4.99348 -1.22726,0.88129 -2.23137,1.89007 -2.23137,2.24173 0,0.84463 -4.93518,5.90535 -5.75886,5.90535 -0.35287,0 -3.07091,1.59567 -6.04009,3.54594 -2.96918,1.95026 -6.19224,3.60326 -7.16235,3.67332 -0.97012,0.07 -1.76384,0.63577 -1.76384,1.25711 0,0.65665 -2.90024,2.0599 -6.92582,3.35098 l -6.92583,2.22126 4.28991,3.78487 c 2.35944,2.08168 5.12704,4.82266 6.15021,6.09106 1.02315,1.26841 4.5905,4.32041 7.92744,6.78223 10.7039,7.89681 14.57121,12.24641 17.75259,19.96639 3.55154,8.61826 3.86572,15.76567 0.98918,22.50252 -2.00449,4.69446 -6.59951,9.36664 -8.51649,8.6595 -0.63967,-0.23596 -0.92057,-0.0519 -0.62423,0.40905 0.29636,0.46093 -0.12235,0.83807 -0.93046,0.83807 -0.92075,0 -1.28621,-0.45864 -0.97889,-1.22849 0.32035,-0.80248 0.0666,-1.07215 -0.73187,-0.77762 -0.67227,0.24798 -1.03787,0.91286 -0.81247,1.47752 0.64892,1.62555 -5.17191,1.6066 -9.4865,-0.0309 -4.64857,-1.76425 -8.76702,-4.54303 -8.15172,-5.50007 0.24868,-0.38679 -0.0799,-0.50699 -0.73018,-0.26711 -0.68936,0.25428 -2.27124,-1.00411 -3.79396,-3.01813 -1.43641,-1.89984 -3.82318,-5.0571 -5.30393,-7.01613 -4.0301,-5.33181 -7.46088,-11.32253 -6.83099,-11.92804 0.3064,-0.29453 0.15778,-0.53551 -0.33027,-0.53551 -1.14703,0 -3.11146,-4.12525 -2.4525,-5.1502 0.27732,-0.43133 -0.0153,-0.79009 -0.65024,-0.79723 -0.83887,-0.009 -0.79283,-0.23763 0.16843,-0.8348 1.0963,-0.68105 1.02077,-0.82385 -0.44096,-0.83371 -1.43444,-0.01 -1.78287,0.58161 -1.86574,3.16618 -0.0561,1.74795 -0.9173,6.80235 -1.91387,11.23199 -0.99658,4.42964 -2.07481,9.76259 -2.39607,11.85099 -0.32127,2.0884 -0.83443,4.18642 -1.14037,4.66227 -0.30593,0.47585 -0.44728,1.86385 -0.31408,3.08445 0.13319,1.22059 -0.40587,2.8422 -1.19789,3.60356 -0.79203,0.76137 -1.00027,1.38431 -0.46275,1.38431 1.21957,0 0.41947,10.82086 -0.91433,12.36577 -0.62243,0.72095 -0.60278,1.22702 0.0631,1.62257 0.58554,0.34788 0.6585,0.96345 0.1848,1.55909 -0.43053,0.54134 -0.70484,2.12875 -0.60959,3.52758 0.0953,1.39884 -0.2218,3.49709 -0.70457,4.66279 -0.48278,1.16569 -0.82348,3.02417 -0.75713,4.12994 0.1069,1.7817 -0.055,1.88283 -1.42173,0.88867 -1.31198,-0.95428 -1.37769,-0.94433 -0.43995,0.0666 1.55702,1.67846 1.38936,3.74333 -0.96678,11.90705 -1.93165,6.69289 -4.75079,17.4106 -5.34227,20.31003 -0.14268,0.69942 -0.48737,1.84392 -0.76599,2.54334 -0.2786,0.69942 -0.7596,4.13292 -1.06886,7.63 -0.58901,6.66035 -2.10671,12.88326 -3.01105,12.34598 -0.29177,-0.17333 -0.57137,1.26978 -0.62134,3.20694 -0.0923,3.58 -0.76195,8.0981 -2.21822,14.96711 -0.44484,2.09825 -0.93822,4.57801 -1.09641,5.51056 -0.15818,0.93256 -0.5405,2.45856 -0.84957,3.39112 -0.30909,0.93255 -1.53647,6.08281 -2.72751,11.44501 -4.5678,20.56464 -7.28147,29.94322 -8.46119,29.24234 -0.41245,-0.24505 -1.03709,8.4e-4 -1.38808,0.54707 -0.39855,0.61991 -0.25588,0.76547 0.38002,0.38768 1.63189,-0.96952 1.18619,1.35344 -0.96613,5.03535 -3.63361,6.21592 -7.25077,10.47567 -9.58853,11.29196 -1.64676,0.575 -2.48179,1.62447 -2.89992,3.64465 -1.11982,5.41024 -1.22018,7.48228 -0.50923,10.51252 0.61776,2.63302 0.51614,2.97935 -0.75047,2.55763 -1.26079,-0.41976 -1.24843,-0.32572 0.0887,0.67474 1.38662,1.03752 1.54452,2.7923 1.46869,16.32183 -0.0467,8.33762 -0.14947,17.82981 -0.22831,21.09376 -0.15479,6.40767 0.74628,10.95177 2.02145,10.19419 0.43731,-0.25982 1.0444,-0.0847 1.34907,0.38921 0.30467,0.47389 0.75238,0.86161 0.9949,0.86161 0.24253,0 0.22258,-0.33967 -0.0444,-0.75482 z m 262.58166,-9.11288 c 0.93907,-0.90272 -0.23791,-1.95982 -1.61607,-1.45144 -0.70926,0.26163 -1.07,0.81722 -0.80162,1.23463 0.57165,0.88917 1.62043,0.98321 2.41769,0.21681 z M 94.62227,560.27272 c 0,-0.18325 -0.61591,-0.56038 -1.36869,-0.83807 -0.78484,-0.28951 -1.13884,-0.14739 -0.82987,0.33319 0.51792,0.80556 2.19856,1.19151 2.19856,0.50488 z m 159.89448,-2.21015 c -0.84962,-5.66453 -0.84864,-9.85585 0.003,-10.87379 0.66966,-0.80088 0.65441,-1.29409 -0.0531,-1.7144 -0.54625,-0.32453 -0.96013,-2.29832 -0.91973,-4.38622 0.0404,-2.08789 0.24826,-3.31929 0.46194,-2.73644 0.21369,0.58285 0.82148,1.05972 1.35068,1.05972 0.52918,0 0.1175,-0.86427 -0.91483,-1.9206 -1.34325,-1.37447 -1.63819,-2.27849 -1.03722,-3.17917 0.46187,-0.69222 0.5996,-2.35542 0.30606,-3.69602 -0.41655,-1.90244 -0.27103,-2.29112 0.66301,-1.77079 0.65819,0.36666 0.36291,-0.25324 -0.6562,-1.37756 -1.01909,-1.12431 -2.08035,-2.66758 -2.35835,-3.4295 -0.3556,-0.9746 -1.46138,-1.34952 -3.72981,-1.2646 -3.21502,0.12034 -3.22535,0.13295 -3.56519,4.35252 -0.18745,2.32751 -0.56911,5.18558 -0.84812,6.35127 -0.27902,1.1657 -0.69947,6.80021 -0.93436,12.52115 -0.42007,10.23166 -0.39082,10.43653 1.78927,12.53223 1.85554,1.78371 2.91181,2.09154 6.48881,1.89109 4.00196,-0.22428 4.25236,-0.37364 3.95459,-2.35889 z m 227.04223,1.34811 c 0.18867,-0.18137 0.50763,-15.15128 0.70877,-33.26647 0.20114,-18.11518 0.54147,-34.27195 0.75628,-35.90392 0.68192,-5.18062 0.77485,-19.95085 0.13768,-21.88066 -0.38322,-1.16071 -0.24062,-1.85714 0.38024,-1.85714 0.54636,0 0.74813,-0.3815 0.44835,-0.84778 -0.59223,-0.92114 -12.13647,-1.19136 -13.05786,-0.30564 -0.31019,0.29817 -0.28136,0.9658 0.064,1.48361 0.34541,0.51782 0.67093,3.03973 0.72339,5.60426 0.0525,2.56453 0.39088,12.67429 0.75206,22.46613 0.65415,17.73467 0.75568,38.83632 0.26595,55.27291 -0.2373,7.96367 -0.11679,8.71349 1.52876,9.51295 1.58878,0.77186 6.39055,0.58865 7.29235,-0.27825 z m 51.09844,-2.35485 c -0.28153,-0.67629 -0.49051,-0.47541 -0.53282,0.51221 -0.0383,0.89369 0.17015,1.39441 0.4632,1.11271 0.29305,-0.28171 0.32438,-1.01293 0.0696,-1.62492 z m -296.92783,0.63289 c 0,-0.20562 -0.39686,-0.60964 -0.88192,-0.89782 -0.48506,-0.28817 -0.88192,-0.11994 -0.88192,0.37386 0,0.49379 0.39686,0.89781 0.88192,0.89781 0.48506,0 0.88192,-0.16823 0.88192,-0.37385 z m 425.96774,-7.25616 c -0.72759,-0.452 -1.71975,-0.82181 -2.2048,-0.82181 -0.48505,0 -0.28663,0.36981 0.44096,0.82181 0.72759,0.45201 1.71975,0.82182 2.2048,0.82182 0.48505,0 0.28664,-0.36981 -0.44096,-0.82182 z m -573.48735,-0.5122 c -0.29307,-0.28171 -1.05372,-0.31182 -1.69036,-0.0669 -0.70353,0.27063 -0.49456,0.47152 0.53283,0.5122 0.92969,0.0368 1.45058,-0.16357 1.15753,-0.44527 z M 533.81882,542.338 c 0,-1.00156 -1.66749,-0.99965 -2.06748,0.003 -0.32583,0.81622 -0.063,1.06666 0.78951,0.7522 0.7029,-0.25945 1.27797,-0.599 1.27797,-0.75474 z m -8.81921,-0.89781 c 0,-0.18325 -0.59529,-0.33319 -1.32288,-0.33319 -0.72759,0 -1.32288,0.36953 -1.32288,0.82118 0,0.45163 0.59529,0.60157 1.32288,0.33318 0.72759,-0.2684 1.32288,-0.63792 1.32288,-0.82117 z m 121.70507,-3.7243 c 0,-0.46628 -0.69452,-0.84194 -1.54336,-0.8348 -1.31896,0.0111 -1.35101,0.13247 -0.22048,0.8348 1.66437,1.03396 1.76384,1.03396 1.76384,0 z m -412.97777,-3.90332 c -0.29305,-0.28171 -1.05372,-0.31182 -1.69036,-0.0669 -0.70354,0.27063 -0.49456,0.47152 0.53284,0.51219 0.92969,0.0368 1.45058,-0.16356 1.15752,-0.44527 z m 290.83174,-4.57447 c 0.29978,-0.46628 0.12478,-0.84778 -0.3889,-0.84778 -0.51368,0 -0.93398,0.3815 -0.93398,0.84778 0,0.46628 0.17501,0.84778 0.3889,0.84778 0.2139,0 0.6342,-0.3815 0.93398,-0.84778 z M 246.83202,513.35152 c 1.8971,0.11118 3.74084,0.58376 4.09721,1.05019 0.40141,0.5254 0.65307,0.44486 0.66144,-0.21168 0.007,-0.58284 0.96321,-1.05972 2.12395,-1.05972 1.16075,0 2.31532,-0.51321 2.56571,-1.14047 0.25039,-0.62725 1.70995,-1.17475 3.24346,-1.21667 1.98462,-0.0543 3.63051,-0.93472 5.71073,-3.055 1.60738,-1.63835 3.06754,-2.83939 3.24482,-2.66899 0.17726,0.17041 0.37489,-0.51676 0.43918,-1.52702 0.0643,-1.01028 0.78553,-3.53825 1.60276,-5.61772 1.66318,-4.23213 4.02619,-12.20984 4.44771,-15.01584 0.57861,-3.85179 1.55881,-7.51631 2.22874,-8.33221 0.38285,-0.46628 0.93752,-2.32292 1.2326,-4.12588 0.29507,-1.80295 0.73677,-3.58959 0.98153,-3.9703 0.24477,-0.38071 0.79682,-2.33907 1.22678,-4.35191 0.42997,-2.01284 1.64656,-7.28396 2.70353,-11.7136 2.03301,-8.52007 2.36382,-10.26268 2.54436,-13.40255 0.0717,-1.24784 0.48169,-1.73822 1.13074,-1.35262 0.59033,0.35072 0.78028,0.23487 0.45202,-0.27569 -0.31138,-0.48433 -0.18925,-2.92765 0.27143,-5.42961 0.46068,-2.50194 1.03437,-6.26575 1.2749,-8.364 0.59324,-5.17532 4.62494,-24.43616 6.39883,-30.56947 0.81982,-2.83463 1.81892,-4.75039 2.3216,-4.45174 0.51085,0.30349 0.60647,0.095 0.22707,-0.4951 -0.36046,-0.56065 -0.37676,-1.66871 -0.0362,-2.46238 0.34053,-0.79366 0.71784,-2.78892 0.83848,-4.43392 0.12064,-1.645 0.45729,-3.74325 0.74814,-4.66278 0.55117,-1.74254 2.08643,-12.70814 2.90472,-20.74689 0.44786,-4.3996 0.87017,-7.35105 3.08963,-21.59277 0.50646,-3.24988 1.31714,-6.62068 1.80149,-7.49067 0.48436,-0.86999 0.69112,-1.764 0.45946,-1.9867 -0.23165,-0.22268 0.18882,-2.76513 0.93438,-5.64989 1.39874,-5.41194 2.17483,-24.32003 0.99823,-24.32003 -0.36453,0 -0.62737,-0.66762 -0.58412,-1.48361 0.0433,-0.81599 -0.44023,-3.20036 -1.07444,-5.29861 -0.6342,-2.09826 -1.0636,-5.02267 -0.95423,-6.4987 0.10937,-1.47604 -0.4132,-3.82146 -1.16125,-5.21207 -2.27661,-4.23203 -3.44242,-10.49141 -2.10583,-11.30654 0.88138,-0.53753 0.88962,-0.69747 0.0364,-0.70751 -0.71356,-0.008 -1.1024,-1.33436 -1.1024,-3.75928 0,-5.78924 -2.15426,-8.50609 -9.40958,-11.86693 -3.47757,-1.61089 -7.84308,-3.31204 -9.70113,-3.78032 -1.85805,-0.46828 -5.75945,-1.43715 -8.6698,-2.15305 -2.93194,-0.72121 -8.43763,-1.24605 -12.34689,-1.17698 -3.88045,0.0686 -8.49612,-0.12226 -10.25706,-0.42405 -2.6595,-0.45578 -3.6074,-0.18726 -5.59745,1.58565 -1.65519,1.4746 -2.71794,1.87731 -3.43807,1.30279 -0.65063,-0.51907 -12.63258,-0.74026 -31.88419,-0.5886 l -30.84185,0.24295 -6.62709,2.57471 c -7.10942,2.76209 -12.80498,5.60768 -15.0494,7.51893 -0.76578,0.6521 -1.78251,1.18563 -2.25943,1.18563 -2.66972,0 -7.91056,11.21731 -9.50617,20.34669 -0.28523,1.63197 -0.67298,3.73022 -0.86165,4.66278 -1.53077,7.56629 -2.30762,43.82196 -1.1081,51.71449 1.36395,8.97435 2.43168,14.66018 3.99898,21.29528 0.89423,3.78567 1.58125,8.45935 1.52672,10.38593 -0.0545,1.92659 0.11739,3.5026 0.38203,3.50224 0.26465,-3.5e-4 0.57911,1.39719 0.69881,3.10566 0.1197,1.70847 0.38604,3.36824 0.59185,3.68839 0.46853,0.72874 3.34393,25.59358 3.44504,29.79078 0.041,1.70401 0.37229,2.92137 0.73609,2.70524 0.68681,-0.40804 0.71541,-0.2856 1.18984,5.09292 0.15847,1.79651 0.62772,3.70401 1.04279,4.23889 0.41507,0.53489 0.82402,2.04271 0.90877,3.3507 0.0847,1.308 1.3714,6.93411 2.85921,12.50247 1.48782,5.56836 2.42129,10.56575 2.07439,11.10532 -0.3476,0.54065 -0.24798,0.75364 0.22191,0.47447 0.46896,-0.2786 1.59497,1.66533 2.50229,4.31986 0.90731,2.65452 1.95045,5.21975 2.31808,5.70051 0.36765,0.48076 0.88846,1.81601 1.15737,2.96723 1.10808,4.7436 4.97064,19.25873 5.86923,22.05602 0.53134,1.65403 1.02831,4.03814 1.10438,5.29802 0.0761,1.25987 0.3778,2.29095 0.67051,2.29127 0.2927,3.3e-4 0.97535,2.57573 1.51698,5.72311 0.54164,3.14737 1.79314,8.08713 2.78111,10.97721 0.98798,2.89009 1.87775,6.20072 1.97731,7.35695 0.0995,1.15622 0.4158,1.96272 0.70279,1.79223 0.8181,-0.48604 11.46581,2.26596 11.08419,2.86481 -0.31784,0.49876 11.82759,0.81704 35.46922,0.9295 7.68301,0.0365 9.81728,0.28821 9.31135,1.09795 -0.52198,0.83541 -0.37992,0.83548 0.6937,3.5e-4 0.74256,-0.5776 2.90229,-0.95922 4.79938,-0.84805 z M 203.09853,487.7971 c -6.44027,-1.34536 -12.98413,-5.78986 -15.59069,-10.58896 -1.91839,-3.53207 -2.4239,-10.02854 -1.07507,-13.8157 0.63631,-1.78656 1.17385,-3.51534 1.19453,-3.84173 0.0207,-0.3264 0.53369,-1.07032 1.14001,-1.65317 0.60633,-0.58285 1.10241,-1.43365 1.10241,-1.89065 0,-0.45701 2.07323,-2.64407 4.60719,-4.86012 5.35751,-4.68535 10.91254,-6.6526 14.43224,-5.111 1.21531,0.53229 2.95637,0.96781 3.869,0.96781 0.91265,0 2.28301,0.5995 3.04523,1.33223 0.76224,0.73272 1.38588,1.13406 1.38588,0.89188 0,-0.24219 1.19853,-0.0387 2.66342,0.45218 1.63243,0.54704 4.02211,2.71648 6.17344,5.60447 3.32287,4.46069 3.51003,5.04151 3.51003,10.89238 0,3.39924 -0.4742,7.24752 -1.05379,8.55172 -1.40558,3.1629 -9.45172,10.55944 -10.72554,9.85963 -0.55468,-0.30474 -0.71339,-0.241 -0.35268,0.14164 2.0679,2.19366 -8.09318,4.36935 -14.32561,3.06739 z m 10.87021,-15.4882 c 3.064,-2.96122 3.35441,-3.6307 3.1618,-7.28884 -0.11664,-2.21547 -0.53514,-4.65563 -0.92999,-5.42257 -0.92667,-1.79996 -5.13384,-3.20096 -8.01984,-2.67062 -4.77267,0.87703 -10.96027,9.70536 -9.46034,13.49778 0.70823,1.79069 4.49091,4.78953 7.02392,5.56843 2.36141,0.72614 4.78388,-0.35901 8.22445,-3.68418 z m 12.50069,1.8236 c 0.29978,-0.46628 0.12477,-0.84778 -0.38891,-0.84778 -0.51368,0 -0.93397,0.3815 -0.93397,0.84778 0,0.46628 0.17501,0.84778 0.38892,0.84778 0.2139,0 0.63418,-0.3815 0.93396,-0.84778 z m 18.52033,10.84628 c -1.45516,-0.48881 -3.46505,-1.6032 -4.46644,-2.4764 -1.00138,-0.87321 -2.21811,-1.58765 -2.70384,-1.58765 -0.48574,0 -1.77536,-1.52601 -2.86583,-3.39112 -1.09047,-1.86511 -1.67947,-3.39111 -1.3089,-3.39111 0.37058,0 0.22652,-0.42994 -0.32013,-0.95542 -0.65656,-0.63115 -0.72384,-1.63825 -0.19821,-2.96723 0.43763,-1.10649 0.62892,-2.0118 0.42509,-2.0118 -1.51373,0 6.77245,-13.92079 10.09259,-16.95557 0.25507,-0.23314 0.50344,-0.90077 0.55195,-1.48361 0.0485,-0.58285 0.14772,-1.37999 0.22048,-1.77142 0.20588,-1.10766 4.36027,-2.67942 7.08206,-2.67942 3.7368,0 12.46366,1.84007 12.01757,2.53392 -0.21649,0.33674 0.48731,0.45305 1.564,0.25847 2.56543,-0.46364 9.40098,3.91641 11.52647,7.38585 3.07506,5.01943 1.46661,13.49204 -3.46047,18.22838 -1.69425,1.62865 -2.78046,2.96118 -2.41384,2.96118 1.16478,0 -2.9522,2.47422 -9.90771,5.95434 -7.02377,3.51426 -10.72884,4.0638 -15.83484,2.34861 z m 11.46497,-13.92518 c 5.5281,-2.25987 8.58945,-5.11665 9.55949,-8.9207 0.49231,-1.93065 0.13827,-2.49718 -2.49339,-3.98978 -2.79349,-1.58438 -3.32427,-1.63226 -5.94855,-0.53648 -4.40829,1.84071 -8.4318,5.74129 -10.45299,10.13369 -3.2533,7.06986 -1.43366,7.71567 9.33545,3.31327 z M 181.34227,329.60995 c -6.97883,-1.22585 -6.76516,-1.13977 -13.27306,-5.34749 -2.53168,-1.63687 -4.35547,-3.36122 -4.05286,-3.83188 0.30489,-0.47421 0.1135,-0.59632 -0.42926,-0.27386 -2.89616,1.72064 -6.8769,-12.51686 -5.33914,-19.09597 2.1121,-9.03635 11.27416,-18.4452 22.76286,-23.376 4.98986,-2.14158 15.03234,-3.5412 15.03234,-2.09506 0,0.44701 0.89295,1.00874 1.98432,1.24829 7.46333,1.63814 20.0637,7.87669 20.0637,9.93369 0,0.4205 1.26822,2.57093 2.81824,4.77874 1.80875,2.57629 2.44338,4.13429 1.77172,4.34951 -0.76362,0.24469 -0.71407,0.65491 0.18324,1.51749 1.42342,1.36831 1.05388,7.1826 -0.77281,12.15956 -2.83378,7.72087 -10.63148,16.57107 -15.3739,17.44902 -1.02406,0.18958 -2.18709,0.53788 -2.5845,0.77398 -0.64189,0.38135 -8.19791,1.76537 -14.26345,2.61259 -1.21264,0.16939 -5.05,-0.19179 -8.52744,-0.80261 z m 11.89232,-9.80699 c 3.06332,-0.47785 6.36785,-1.33334 7.3434,-1.9011 3.15972,-1.83891 9.10259,-7.79803 10.35468,-10.38299 1.06856,-2.20603 2.01574,-12.69323 1.06379,-11.77812 -0.19924,0.19151 -0.79454,-0.447 -1.32289,-1.41893 -0.85426,-1.57144 -2.46864,-2.63614 -7.78355,-5.13331 -2.52186,-1.18486 -10.20393,-0.81511 -13.71007,0.65989 -1.80338,0.75867 -4.46948,1.52476 -5.92465,1.70242 -3.49795,0.42708 -6.40527,2.58353 -10.05313,7.45675 -2.37695,3.1754 -3.00078,4.82512 -3.01233,7.96616 -0.0198,5.4022 0.23476,6.0074 4.04599,9.61652 2.55597,2.42043 4.19172,3.22598 7.05536,3.47453 2.05038,0.17797 4.32326,0.38734 5.05083,0.46529 0.72759,0.0779 3.82924,-0.24926 6.89258,-0.72711 z m -0.46432,-9.50366 c -3.85062,-2.61664 -5.00169,-5.23589 -3.56963,-8.12282 0.82484,-1.66283 1.89688,-2.33406 4.04482,-2.5326 3.68249,-0.34038 6.53198,1.42869 8.40155,5.21597 3.1312,6.34307 -2.48368,9.78374 -8.87674,5.43945 z m 14.49901,-27.42917 c -0.29305,-0.28171 -1.05372,-0.31182 -1.69036,-0.0669 -0.70353,0.27063 -0.49456,0.47152 0.53284,0.51219 0.92969,0.0368 1.45057,-0.16356 1.15752,-0.44527 z m 43.45297,46.34977 c -1.69771,-0.89946 -4.07888,-2.06676 -5.29153,-2.59402 -2.55518,-1.11097 -7.67326,-5.64284 -8.97959,-7.95111 -0.70035,-1.23753 -0.63602,-1.45651 0.29288,-0.99685 0.65471,0.32399 0.47193,0.025 -0.40618,-0.66439 -2.42306,-1.90233 -3.44304,-13.1892 -2.00207,-22.15446 0.80657,-5.01824 3.01698,-10.62896 4.1874,-10.62896 0.46102,0 0.59294,-0.3815 0.29316,-0.84778 -0.29979,-0.46628 0.0736,-0.84778 0.82987,-0.84778 0.75622,0 1.37493,-0.32834 1.37493,-0.72966 0,-0.40132 2.4804,-2.01512 5.51201,-3.58624 4.93359,-2.55683 6.25235,-2.85834 12.56737,-2.8734 3.88045,-0.009 9.03969,0.31119 11.46498,0.71209 4.59711,0.7599 15.46081,4.39525 16.28271,5.44875 0.26057,0.334 1.5516,1.14104 2.86896,1.79342 1.31735,0.65237 2.18687,1.51015 1.93226,1.90615 -0.25459,0.396 -0.10289,0.72001 0.33712,0.72001 1.412,0 4.64269,8.20085 4.84271,12.29278 0.1414,2.89285 -2.33948,12.19769 -3.12736,11.72959 -0.54775,-0.32543 -0.65501,-0.13445 -0.26508,0.47203 0.94622,1.47175 -2.52157,8.0549 -5.09781,9.67757 -10.18287,6.41378 -25.17506,11.56864 -27.86443,9.58081 -0.96805,-0.71554 -1.11356,-0.68694 -0.60938,0.11975 1.07549,1.72087 -5.60035,1.29861 -9.14293,-0.5783 z m 32.35159,-9.54205 c -0.28152,-0.6763 -0.4905,-0.47542 -0.53281,0.5122 -0.0383,0.89369 0.17015,1.39442 0.4632,1.11271 0.29305,-0.28171 0.32439,-1.01293 0.0696,-1.62491 z m -15.3358,-1.91628 c 1.84031,-0.7534 3.78675,-1.10799 4.3254,-0.78797 0.55386,0.32906 0.73344,0.19936 0.41333,-0.29853 -0.3113,-0.4842 0.52033,-1.32349 1.84806,-1.86508 6.15619,-2.51113 10.7371,-9.29273 10.77295,-15.94833 0.0158,-2.92852 -0.48765,-4.06146 -2.71319,-6.10598 -3.65367,-3.35646 -10.49561,-5.49927 -15.22337,-4.76776 -6.34195,0.98127 -9.76609,1.10414 -11.69826,0.41979 -2.19588,-0.77776 -7.45755,2.91995 -8.01208,5.6306 -0.34184,1.67089 -1.04898,8.41738 -1.28233,12.23404 -0.24653,4.03213 1.23076,8.50954 3.33186,10.09829 1.15706,0.87491 2.10375,2.06303 2.10375,2.64026 0,1.46372 11.72448,0.55582 16.13388,-1.24933 z m -1.42733,-10.17655 c -1.85503,-0.63593 -3.4425,-1.28681 -3.52768,-1.4464 -0.0852,-0.15958 -0.83051,-1.46281 -1.65628,-2.89607 -2.63884,-4.58001 0.34184,-8.65018 5.5322,-7.55432 4.64068,0.97981 8.45306,9.05971 5.5785,11.82299 -1.61173,1.54933 -1.62214,1.54946 -5.92672,0.0738 z m 26.74374,-17.42046 c -0.7276,-0.452 -1.71976,-0.82181 -2.2048,-0.82181 -0.48507,0 -0.28664,0.36981 0.44096,0.82181 0.72757,0.452 1.71973,0.82181 2.2048,0.82181 0.48504,0 0.28661,-0.36981 -0.44096,-0.82181 z m -45.50977,-10.03204 c 0.24982,-0.38858 -0.10617,-0.70649 -0.79107,-0.70649 -0.68492,0 -1.0409,0.31791 -0.79109,0.70649 0.24982,0.38856 0.6058,0.70647 0.79109,0.70647 0.18527,0 0.54125,-0.31791 0.79107,-0.70647 z m 27.87135,228.7589 c 0,-0.46628 -0.17501,-0.84778 -0.38892,-0.84778 -0.2139,0 -0.63419,0.3815 -0.93396,0.84778 -0.29978,0.46628 -0.12477,0.84778 0.3889,0.84778 0.51369,0 0.93398,-0.3815 0.93398,-0.84778 z m 5.29153,-8.99294 c 0,-0.70165 -1.71246,-1.09843 -2.10508,-0.48775 -0.25471,0.39617 0.11473,0.72031 0.82099,0.72031 0.70624,0 1.28409,-0.10466 1.28409,-0.23256 z m 18.28147,-4.23594 c -0.29304,-0.28171 -1.05372,-0.31182 -1.69034,-0.0669 -0.70353,0.27062 -0.49457,0.47151 0.53282,0.51219 0.92969,0.0368 1.45059,-0.16356 1.15752,-0.44527 z m -126.35444,-2.82033 c 0.27907,-0.43407 0.17021,-0.98953 -0.24192,-1.23438 -0.41213,-0.24484 -0.74933,0.11029 -0.74933,0.7892 0,1.4295 0.27811,1.55439 0.99125,0.44518 z m 356.53577,-14.13524 c -0.29305,-0.28171 -1.05371,-0.31182 -1.69035,-0.0669 -0.70353,0.27062 -0.49456,0.47151 0.53283,0.51219 0.92969,0.0368 1.45058,-0.16356 1.15752,-0.44527 z M 354.55005,463.44695 c -0.29305,-0.28171 -1.05372,-0.31182 -1.69035,-0.0669 -0.70353,0.27063 -0.49457,0.47152 0.53283,0.5122 0.92969,0.0368 1.45057,-0.16356 1.15752,-0.44527 z m 177.72541,-8.52705 c -0.60632,-0.23518 -1.59848,-0.23518 -2.2048,0 -0.60632,0.23519 -0.11024,0.42761 1.1024,0.42761 1.21264,0 1.70872,-0.19242 1.1024,-0.42761 z M 291.72533,444.46996 c 0.30897,-0.48058 -0.0451,-0.6227 -0.82988,-0.33319 -1.52786,0.5636 -1.80741,1.17126 -0.53882,1.17126 0.45644,0 1.07235,-0.37714 1.3687,-0.83807 z m 284.77579,-12.58509 c 0.24982,-0.38857 -0.10616,-0.70649 -0.79106,-0.70649 -0.68491,0 -1.0409,0.31792 -0.79107,0.70649 0.2498,0.38856 0.6058,0.70648 0.79107,0.70648 0.18526,0 0.54127,-0.31792 0.79106,-0.70648 z M 160.52747,426.1447 c -0.29306,-0.28171 -1.05372,-0.31182 -1.69035,-0.0669 -0.70353,0.27063 -0.49456,0.47152 0.53283,0.51219 0.92969,0.0368 1.45057,-0.16356 1.15752,-0.44527 z m 132.93027,-12.1459 c 0.27908,-0.43406 0.1702,-0.98952 -0.24193,-1.23437 -0.41213,-0.24485 -0.74932,0.11029 -0.74932,0.7892 0,1.4295 0.2781,1.55439 0.99125,0.44517 z m -137.10102,-3.42309 c 0,-0.45164 -0.5953,-0.60157 -1.32288,-0.33318 -0.72758,0.26839 -1.32288,0.63792 -1.32288,0.82117 0,0.18325 0.5953,0.33319 1.32288,0.33319 0.72758,0 1.32288,-0.36953 1.32288,-0.82118 z m 139.98656,-10.71215 c -0.29305,-0.2817 -1.05372,-0.31182 -1.69034,-0.0669 -0.70354,0.27063 -0.49458,0.47152 0.53282,0.5122 0.92968,0.0368 1.45057,-0.16356 1.15752,-0.44527 z m 5.53038,-23.22559 c 0,-0.46628 -0.39687,-0.84778 -0.88192,-0.84778 -0.48506,0 -0.88192,0.3815 -0.88192,0.84778 0,0.46628 0.39686,0.84778 0.88192,0.84778 0.48505,0 0.88192,-0.3815 0.88192,-0.84778 z m 244.29205,0.05 c 0,-0.43876 -0.33072,-0.99424 -0.73494,-1.23438 -0.40422,-0.24015 -0.73494,0.11884 -0.73494,0.79775 0,0.6789 0.33072,1.23437 0.73494,1.23437 0.40422,2e-5 0.73494,-0.35897 0.73494,-0.79773 z m 164.38737,-2.45208 c 0.24982,-0.38857 -0.10616,-0.70648 -0.79107,-0.70648 -0.6849,0 -1.04089,0.31791 -0.79106,0.70648 0.24979,0.38858 0.6058,0.7065 0.79106,0.7065 0.18527,0 0.54127,-0.31792 0.79107,-0.70648 z M 83.40293,337.53081 c 3.01777,-1.45898 5.68782,-2.95247 5.93344,-3.31889 0.24561,-0.36642 3.16847,-2.05431 6.49524,-3.75087 8.9967,-4.58808 16.9622,-10.55945 21.94108,-16.44822 0.84885,-1.00397 1.55097,-2.10718 1.56028,-2.45155 0.009,-0.34438 1.35758,-2.10266 2.99617,-3.90727 1.6386,-1.80462 4.03613,-5.28911 5.32786,-7.74331 2.03117,-3.85913 2.28823,-5.19162 1.90206,-9.85945 -0.24558,-2.96849 -0.46796,-5.91365 -0.49419,-6.5448 -0.0303,-0.7304 -1.12398,-0.26813 -3.00853,1.27167 -4.99815,4.08384 -6.60126,5.28074 -11.3852,8.50024 -12.08699,8.13435 -16.67618,11.6556 -23.74557,18.21984 -1.84001,1.70853 -3.64608,3.23453 -4.01351,3.39112 -0.36742,0.15659 -1.81339,1.90608 -3.21326,3.88776 -1.39987,1.98169 -2.84891,3.60306 -3.22009,3.60306 -1.72842,0 -7.80325,12.58811 -7.87566,16.31974 -0.0456,2.34728 4.55716,1.84904 10.79988,-1.16907 z m 277.08942,-6.59552 c 2.85212,-5.34514 0.39051,-14.00537 -5.84236,-20.55397 -3.56032,-3.74068 -26.5199,-23.34066 -30.4235,-25.97173 -4.16627,-2.80811 -7.84568,-2.1816 -4.21215,0.71721 0.76131,0.60737 1.19887,1.78554 0.97236,2.61816 -0.22649,0.83262 0.0255,1.43152 0.56005,1.33089 0.53452,-0.10062 0.9899,0.28155 1.01195,0.84928 0.0221,0.56773 0.7346,1.81196 1.58345,2.76497 0.84884,0.953 1.54337,2.49137 1.54337,3.4186 0,0.92722 0.35058,1.68587 0.77906,1.68587 0.42848,0 1.06961,0.85837 1.42471,1.9075 0.35513,1.04912 0.73141,2.09825 0.83621,2.33139 0.1048,0.23314 0.50791,1.56839 0.89582,2.96722 0.38791,1.39884 1.41478,3.30634 2.28197,4.2389 0.86716,0.93255 1.86198,3.18036 2.21071,4.99513 0.35209,1.83236 2.74446,6.26188 5.38013,9.9614 2.61037,3.664 4.52615,6.66182 4.25727,6.66182 -1.18893,0 5.81893,5.19801 8.4315,6.25398 2.75132,1.11206 2.99714,1.05828 4.8331,-1.05755 1.06389,-1.22607 2.62824,-3.52965 3.47635,-5.11907 z m 190.08296,3.31375 c 0.7276,-0.452 0.92601,-0.82181 0.44096,-0.82181 -0.48504,0 -1.4772,0.36981 -2.2048,0.82181 -0.72759,0.452 -0.92601,0.82181 -0.44096,0.82181 0.48505,0 1.47721,-0.36981 2.2048,-0.82181 z M 66.83552,328.3243 c 0.30898,-0.48057 -0.0451,-0.62269 -0.82987,-0.33319 -1.52785,0.5636 -1.8074,1.17126 -0.53881,1.17126 0.45642,0 1.07234,-0.37713 1.36868,-0.83807 z m 484.95822,-11.49875 c 0.30117,-0.75446 0.15332,-1.09476 -0.3466,-0.79774 -0.4795,0.28487 -0.87183,0.87694 -0.87183,1.3157 0,1.21947 0.63214,0.95075 1.21843,-0.51796 z M 138.75702,267.8115 c 0.0212,-1.46102 0.57137,-4.09138 1.22242,-5.84523 1.38801,-3.73926 1.10952,-3.99458 -5.03811,-4.61885 -2.53069,-0.25699 -4.7997,-0.70364 -5.04222,-0.99257 -0.24253,-0.28893 -1.82998,-1.15442 -3.52768,-1.92333 -1.69771,-0.76891 -5.86478,-2.66294 -9.26018,-4.20898 -3.39539,-1.54603 -7.09509,-3.77818 -8.22155,-4.96033 -1.12647,-1.18215 -1.77212,-1.63291 -1.43478,-1.0017 0.42099,0.78776 -0.10976,0.69221 -1.69248,-0.30468 -1.2682,-0.79878 -2.04947,-1.85105 -1.73617,-2.33837 0.31331,-0.48732 0.15411,-0.63915 -0.35379,-0.3374 -1.12072,0.66582 -10.81405,-10.50457 -10.81405,-12.46188 0,-0.76408 -0.43932,-1.38924 -0.97628,-1.38924 -0.53695,0 -0.75767,-0.54761 -0.4905,-1.21689 0.26717,-0.6693 0.17144,-1.33692 -0.21273,-1.48362 -1.23832,-0.47284 -5.37586,-8.32176 -5.37586,-10.19801 0,-0.99947 -0.37547,-2.98881 -0.8344,-4.42075 -0.45892,-1.43194 -1.8845,-5.8439 -3.16795,-9.80434 -3.03164,-9.35505 -3.8332,-14.21758 -4.50784,-27.34616 -0.4179,-8.13252 -0.29365,-10.80918 0.50174,-10.80918 0.58146,0 0.83405,-0.34707 0.56131,-0.77127 -0.88635,-1.37863 0.48456,-3.37627 2.00813,-2.92619 1.3586,0.40136 1.35791,0.36447 -0.009,-0.48518 -1.19543,-0.743 -1.32238,-1.44611 -0.66121,-3.66224 0.45006,-1.50849 1.04473,-4.64657 1.32149,-6.97351 0.27676,-2.32694 0.97117,-4.51689 1.54313,-4.86656 0.57195,-0.34967 0.73208,-0.6416 0.35583,-0.64874 -0.89828,-0.017 1.84167,-5.09966 2.74912,-5.09966 0.38328,0 1.55213,-1.43063 2.59745,-3.17917 1.04532,-1.74854 4.09488,-5.22523 6.7768,-7.72599 4.90447,-4.57314 6.21061,-6.77098 3.33287,-5.6082 -0.84885,0.34299 -2.53328,0.8276 -3.74317,1.07691 -1.20989,0.24932 -3.39264,1.15257 -4.85056,2.00725 -1.45792,0.85468 -3.23787,1.55539 -3.95543,1.55714 -1.8419,0.004 -9.71559,5.30278 -9.71764,6.53913 -8.8e-4,0.56399 -0.93572,1.89924 -2.07729,2.96723 -2.59964,2.43208 -12.79647,18.6958 -14.23995,22.71238 -0.0838,0.23314 -0.3985,0.99614 -0.69937,1.69556 -2.93551,6.82408 -6.52444,18.98558 -7.2572,24.59187 -0.26085,1.99569 -0.69317,3.96901 -0.9607,4.38512 -0.79282,1.23315 -0.44142,22.76207 0.45539,27.90036 1.14186,6.54231 5.02411,17.35755 7.38363,20.56944 1.07809,1.46756 2.08796,3.24054 2.24414,3.93996 0.15619,0.69941 1.29092,2.28979 2.52162,3.53416 1.34636,1.36131 1.96936,2.67981 1.56409,3.31016 -0.43468,0.6761 -0.31011,0.83173 0.35124,0.43881 0.60421,-0.35896 3.1033,1.25261 6.08923,3.92671 7.66943,6.8685 12.98295,10.73226 17.26095,12.55135 3.38471,1.43927 13.53978,3.47507 17.34782,3.47777 0.72759,5.1e-4 4.29937,0.51297 7.93729,1.1388 8.3991,1.4449 12.5924,1.2651 14.77351,-0.63346 1.79974,-1.56657 4.62875,-1.21367 4.62875,0.57742 0,1.66609 1.80024,2.8782 3.60205,2.42525 1.19911,-0.30144 1.70071,-1.19569 1.72818,-3.0811 z m 203.09811,-4.49863 c 1.40698,-0.69941 5.29097,-3.14616 8.63108,-5.43722 3.34009,-2.29106 6.43598,-4.16557 6.87973,-4.16557 0.44373,0 1.64092,-1.2974 2.66041,-2.88311 1.01948,-1.5857 2.46603,-3.10901 3.21455,-3.38512 0.74851,-0.27611 1.1337,-0.85546 0.85596,-1.28744 -0.7041,-1.09515 2.08888,-3.60599 3.24631,-2.91836 0.57184,0.33975 0.68981,0.16252 0.29773,-0.44731 -0.35713,-0.5555 0.1841,-2.54709 1.20275,-4.42575 1.01865,-1.87867 1.62299,-3.77213 1.34296,-4.20768 -0.28003,-0.43556 0.0459,-0.79192 0.72423,-0.79192 0.67833,0 1.70381,-0.99257 2.27882,-2.20572 0.91786,-1.93647 1.23117,-2.06582 2.56685,-1.05972 1.3947,1.05058 1.41362,1.01438 0.22709,-0.43479 -1.16262,-1.41999 -1.09915,-1.73266 0.62395,-3.07392 1.05502,-0.82123 1.6829,-1.71935 1.39529,-1.99582 -0.28761,-0.27647 0.10217,-1.41976 0.86619,-2.54064 0.764,-1.12088 2.04251,-4.46201 2.84115,-7.42471 0.79864,-2.96271 1.84251,-6.08803 2.31971,-6.94518 3.60783,-6.48031 5.15239,-28.3752 2.44495,-34.65846 -0.56482,-1.31085 -0.84363,-3.30528 -0.61958,-4.43206 0.27435,-1.3796 0.0557,-1.91892 -0.66972,-1.65136 -0.70707,0.26083 -1.28892,-0.96036 -1.69362,-3.55459 -0.70311,-4.50722 -3.53066,-9.83366 -8.65855,-16.31065 -4.51436,-5.70207 -4.96271,-5.92732 -4.76962,-2.39614 0.0873,1.59669 0.31812,2.75297 0.51288,2.56954 1.06077,-0.99906 2.9204,5.18631 3.33299,11.08582 1.31739,18.83761 1.22048,22.74451 -0.77139,31.09767 -1.07644,4.51421 -2.26751,8.02326 -2.64682,7.79792 -0.37931,-0.22535 -0.47648,0.12428 -0.21594,0.77696 0.63556,1.59212 -8.49743,18.2961 -13.78806,25.21796 -6.78387,8.8755 -24.15348,22.913 -26.57315,21.47546 -0.589,-0.34994 -0.72379,-0.18988 -0.34119,0.4052 0.4132,0.64271 -1.90619,2.16372 -6.69215,4.38856 -4.3914,2.04141 -7.45311,3.03414 -7.64561,2.47901 -0.59562,-1.71768 -2.5859,2.14767 -2.31724,4.50035 0.15308,1.34045 -0.16811,2.32817 -0.75951,2.33565 -0.57699,0.008 -0.44672,0.36645 0.29814,0.82192 1.08184,0.66153 1.12531,1.11543 0.23855,2.49105 -0.6821,1.05813 -0.76389,1.8725 -0.22048,2.19535 0.47512,0.28226 0.86385,1.03812 0.86385,1.67967 0,0.64154 0.37178,2.10642 0.82616,3.25529 l 0.82617,2.08884 12.15302,-3.37866 c 6.68415,-1.85826 13.30418,-3.95091 14.71116,-4.65032 z m 15.19528,-11.54685 c 0.33119,-0.8361 0.82431,-1.30662 1.09585,-1.04559 0.27152,0.26102 5.6e-4,0.94509 -0.60216,1.52017 -0.87099,0.83105 -0.9723,0.73367 -0.49369,-0.47458 z m -6.6711,10.93644 c 0,-0.18326 -0.61592,-0.56038 -1.3687,-0.83807 -0.78483,-0.28951 -1.13883,-0.14739 -0.82987,0.33318 0.51793,0.80557 2.19857,1.19151 2.19857,0.50489 z m -43.69276,-5.65985 c -0.27907,-0.43405 -0.98005,-0.75907 -1.55774,-0.72226 -0.75179,0.0479 -0.73543,0.18898 0.0575,0.4963 0.60934,0.23615 0.84568,0.83722 0.52518,1.33572 -0.34732,0.54022 -0.16559,0.65854 0.44985,0.2929 0.56791,-0.3374 0.80425,-0.96859 0.52517,-1.40266 z m 3.76746,0.39416 c -0.29305,-0.28171 -1.05372,-0.31182 -1.69034,-0.0669 -0.70354,0.27063 -0.49457,0.47152 0.53282,0.5122 0.92969,0.0368 1.45058,-0.16357 1.15752,-0.44527 z m -189.76316,-7.56865 c -0.94155,-0.68459 -2.13215,-1.23119 -2.64576,-1.21466 -0.51361,0.0165 0.0583,0.57525 1.27096,1.24162 2.85677,1.56986 3.55225,1.55621 1.3748,-0.027 z m 253.93503,-0.38722 c 0.30898,-0.48058 -0.0451,-0.6227 -0.82987,-0.33319 -1.52786,0.5636 -1.80741,1.17126 -0.53882,1.17126 0.45643,0 1.07234,-0.37714 1.36869,-0.83807 z m -60.64534,-7.42777 c 2.79981,-1.28227 5.289,-2.55087 5.53154,-2.81913 0.24252,-0.26825 1.81714,-1.222 3.49914,-2.11945 1.68202,-0.89745 5.1105,-3.15772 7.61887,-5.02283 8.98222,-6.67881 8.473,-6.40949 9.98207,-5.27918 1.23163,0.9225 1.24884,0.86883 0.15204,-0.47398 -1.0959,-1.3417 -0.9549,-1.79716 1.23735,-3.9968 1.36083,-1.3654 2.8369,-2.26707 3.28017,-2.00372 0.44327,0.26336 0.7054,-0.0364 0.58251,-0.66598 -0.33529,-1.71801 3.66525,-7.58413 4.73767,-6.94699 0.54047,0.32109 0.67228,0.14989 0.31383,-0.40763 -0.76746,-1.19372 1.02922,-4.60522 2.09264,-3.97344 0.42721,0.25381 1.06391,0.0148 1.4149,-0.53113 0.39854,-0.61991 0.25588,-0.76548 -0.38002,-0.38768 -0.56001,0.3327 -1.01819,0.44858 -1.01819,0.2575 0,-0.87247 2.11275,-6.15639 2.61294,-6.53488 0.3081,-0.23314 1.42017,-2.61752 2.47126,-5.29862 l 1.9111,-4.87473 -1.95429,-0.0336 c -1.07486,-0.0185 -4.13705,-0.27599 -6.80486,-0.57218 -9.69287,-1.0761 -44.14802,0.47154 -56.88389,2.55508 -4.36551,0.71418 -10.78564,1.33682 -14.26697,1.38364 -7.65613,0.10296 -20.90424,3.89627 -25.57937,7.32412 -3.54615,2.60006 -7.30759,9.67297 -7.46111,14.02964 -0.0556,1.5764 -0.0502,5.20178 0.0118,8.05642 l 0.11284,5.19027 3.74816,0.6568 c 2.06149,0.36125 4.12836,0.57431 4.59305,0.47347 3.02106,-0.65559 14.0576,0.0599 18.11641,1.17454 2.66781,0.73261 7.33097,1.76339 10.36257,2.29062 3.03161,0.52723 5.51201,1.2837 5.51201,1.68105 0,0.39735 0.55074,0.72245 1.22387,0.72245 2.13932,0 12.90853,5.21489 12.40061,6.00489 -0.268,0.41687 0.0651,0.55419 0.74011,0.30517 0.67507,-0.24902 1.73643,0.13685 2.35859,0.85749 1.49719,1.73415 1.80243,1.69384 7.73059,-1.02114 z m 61.97447,-7.84196 c -0.72759,-0.452 -1.71976,-0.82181 -2.2048,-0.82181 -0.48507,0 -0.28664,0.36981 0.44096,0.82181 0.72757,0.452 1.71973,0.82181 2.2048,0.82181 0.48505,0 0.28661,-0.36981 -0.44096,-0.82181 z M 86.20636,203.74972 c 0.27907,-0.43406 0.1702,-0.98952 -0.24192,-1.23437 -0.41213,-0.24485 -0.74933,0.11029 -0.74933,0.7892 0,1.42949 0.27811,1.55439 0.99125,0.44517 z m 418.06811,-11.0797 c -0.29978,-0.46628 -1.01772,-0.84194 -1.59542,-0.8348 -0.6311,0.008 -0.52232,0.341 0.27254,0.8348 1.69427,1.05254 1.99957,1.05254 1.32288,0 z m -32.63107,-3.39111 c -0.29978,-0.46628 -0.0586,-0.84778 0.53591,-0.84778 0.59453,0 0.84277,-0.22895 0.55168,-0.50879 -0.79215,-0.76148 -2.5183,0.50298 -1.93184,1.41515 0.27907,0.43405 0.70582,0.78919 0.94835,0.78919 0.24253,0 0.19569,-0.3815 -0.1041,-0.84777 z m -3.52767,-0.84778 c -0.29978,-0.46628 -1.01773,-0.84194 -1.59542,-0.8348 -0.6311,0.008 -0.52233,0.341 0.27254,0.8348 1.69427,1.05254 1.99957,1.05254 1.32288,0 z m -130.96524,-1.2564 c 0,-0.12496 -1.03452,-0.22721 -2.29895,-0.22721 -1.46997,0 -1.89632,0.2392 -1.18238,0.66336 0.95387,0.56671 3.48133,0.25007 3.48133,-0.43615 z m 133.71599,-5.12213 c -0.78534,-0.75493 -1.42788,-1.04014 -1.42788,-0.63381 0,0.96011 1.97209,2.85586 2.47147,2.37579 0.21135,-0.20316 -0.25828,-0.98705 -1.04359,-1.74198 z m -168.52852,-0.23997 c -0.27154,-0.26102 -0.98317,-5.4e-4 -1.5814,0.57885 -0.86451,0.83728 -0.76321,0.93466 0.4937,0.47458 0.86977,-0.31836 1.35923,-0.79241 1.0877,-1.05343 z M 44.05882,174.44278 c 0,-0.69942 -0.33072,-1.27167 -0.73494,-1.27167 -0.88079,0 -0.96906,1.18791 -0.14698,1.97815 0.81747,0.78582 0.88192,0.73419 0.88192,-0.70648 z M 53.172,153.15762 c 0,-0.18325 -0.5953,-0.33319 -1.32289,-0.33319 -0.72758,0 -1.32288,0.36953 -1.32288,0.82117 0,0.45165 0.5953,0.60158 1.32288,0.33319 0.72759,-0.26839 1.32289,-0.63792 1.32289,-0.82117 z m 11.46497,-8.81098 c 0,-0.46627 -0.42029,-0.84777 -0.93398,-0.84777 -0.51368,0 -0.68869,0.3815 -0.38891,0.84777 0.29979,0.46628 0.72008,0.84778 0.93398,0.84778 0.2139,0 0.38891,-0.3815 0.38891,-0.84778 z m -7.77561,-3.57479 c -0.63283,-0.60834 -1.0436,-0.65839 -1.0436,-0.12717 0,1.1316 1.04297,2.13419 1.63155,1.56839 0.25062,-0.24091 -0.0139,-0.88946 -0.58795,-1.44122 z m 308.5106,-8.66796 c 0,-0.89481 -1.69251,-1.27074 -2.19591,-0.48775 -0.30467,0.47388 0.0647,0.86161 0.82097,0.86161 0.75622,0 1.37494,-0.16824 1.37494,-0.37386 z M 66.83552,130.7919 c 0.30898,-0.48057 -0.0451,-0.6227 -0.82987,-0.33318 -1.52785,0.56359 -1.8074,1.17125 -0.53881,1.17125 0.45642,0 1.07234,-0.37713 1.36868,-0.83807 z m 276.04746,-12.72638 c -0.29978,-0.46628 -1.01773,-0.84194 -1.59542,-0.8348 -0.6311,0.008 -0.52233,0.341 0.27254,0.8348 1.69427,1.05253 1.99957,1.05253 1.32288,0 z M 99.9138,117.73233 c 0,-0.18325 -0.61591,-0.56039 -1.36869,-0.83807 -0.78484,-0.28951 -1.13884,-0.14738 -0.82987,0.33319 0.51792,0.80556 2.19856,1.19151 2.19856,0.50488 z m 5.05267,-4.4179 c -0.29306,-0.28171 -1.05372,-0.31183 -1.69035,-0.0669 -0.70354,0.27064 -0.49456,0.47152 0.53283,0.5122 0.92969,0.0368 1.45057,-0.16356 1.15752,-0.44527 z m 592.88961,610.8627 c 0,-0.4938 0.39688,-0.66203 0.88192,-0.37386 0.48505,0.28818 0.88193,0.6922 0.88193,0.89782 0,0.20562 -0.39688,0.37385 -0.88193,0.37385 -0.48504,0 -0.88192,-0.40402 -0.88192,-0.89781 z M 17.895164,361.37795 c 0,-0.46627 0.618721,-0.84777 1.374932,-0.84777 0.756212,0 1.129653,0.3815 0.82987,0.84777 -0.299782,0.46628 -0.918503,0.84778 -1.374932,0.84778 -0.456429,0 -0.82987,-0.3815 -0.82987,-0.84778 z"
       id="path3050"
       inkscape:connector-curvature="0" />
    <use
       x="0"
       y="0"
       xlink:href="#path3050"
       id="use3135" />
  </g>
</svg>
